<svg width="67" height="67" viewBox="0 0 67 67" fill="none" xmlns="http://www.w3.org/2000/svg">
<path d="M49.1333 14.8237L33.3603 6.33705C31.6853 5.44372 29.7033 5.44372 28.0283 6.33705L12.2833 14.8237C11.1387 15.4658 10.4128 16.6941 10.4128 18.0341C10.4128 19.4021 11.1108 20.6304 12.2833 21.2446L28.0562 29.7312C28.8937 30.1779 29.8149 30.4012 30.7083 30.4012C31.6016 30.4012 32.5508 30.1779 33.3603 29.7312L49.1333 21.2446C50.2778 20.6304 51.0037 19.4021 51.0037 18.0341C51.0037 16.6941 50.2778 15.4658 49.1333 14.8237Z" fill="#EDA415"/>
<path d="M25.4599 32.6904L10.8037 25.3762C9.65908 24.7899 8.37492 24.8737 7.28617 25.5158C6.22533 26.1858 5.58325 27.3304 5.58325 28.5866V42.4333C5.58325 44.8341 6.92325 46.9837 9.07283 48.0724L23.7291 55.3866C24.2316 55.6379 24.7899 55.7774 25.3483 55.7774C25.9903 55.7774 26.6603 55.582 27.2466 55.247C28.3074 54.577 28.9495 53.4324 28.9495 52.1762V38.3295C28.9216 35.9287 27.5816 33.7791 25.4599 32.6904Z" fill="#EDA415"/>
<path d="M55.8332 28.5866V35.4541C54.4932 35.0633 53.0695 34.8958 51.6457 34.8958C47.849 34.8958 44.1361 36.2079 41.2049 38.5529C37.1849 41.7074 34.8957 46.4812 34.8957 51.6458C34.8957 53.0137 35.0632 54.3816 35.4261 55.6937C35.0074 55.6379 34.5886 55.4704 34.1978 55.2191C33.137 54.577 32.4949 53.4324 32.4949 52.1762V38.3295C32.4949 35.9287 33.8349 33.7791 35.9565 32.6904L50.6128 25.3762C51.7574 24.7899 53.0415 24.8737 54.1303 25.5158C55.1911 26.1858 55.8332 27.3304 55.8332 28.5866Z" fill="#EDA415"/>
<path d="M61.3608 43.7454C59.0716 40.9258 55.582 39.1392 51.6458 39.1392C48.6866 39.1392 45.9508 40.1721 43.8012 41.9029C40.8978 44.1921 39.0833 47.7375 39.0833 51.7017C39.0833 54.0467 39.7533 56.28 40.8978 58.1783C41.6516 59.4346 42.6008 60.5233 43.7174 61.4167H43.7453C45.8949 63.2033 48.6587 64.2642 51.6458 64.2642C54.8283 64.2642 57.7037 63.0917 59.9091 61.1375C60.8862 60.3 61.7237 59.295 62.3937 58.1783C63.5383 56.28 64.2083 54.0467 64.2083 51.7017C64.2083 48.6867 63.1474 45.895 61.3608 43.7454ZM57.9549 50.1383L51.2549 56.3358C50.8641 56.6987 50.3337 56.8942 49.8312 56.8942C49.3008 56.8942 48.7703 56.6987 48.3516 56.28L45.2528 53.1812C44.4432 52.3717 44.4432 51.0317 45.2528 50.2221C46.0624 49.4125 47.4024 49.4125 48.212 50.2221L49.887 51.8971L55.1074 47.0675C55.9449 46.2858 57.2849 46.3417 58.0666 47.1792C58.8762 48.0446 58.8203 49.3567 57.9549 50.1383Z" fill="#EDA415"/>
</svg>
