<svg width="67" height="67" viewBox="0 0 67 67" fill="none" xmlns="http://www.w3.org/2000/svg">
<path d="M47.4584 61.4167H19.5417C18.3972 61.4167 17.448 60.4675 17.448 59.3229C17.448 58.1784 18.3972 57.2292 19.5417 57.2292H47.4584C48.603 57.2292 49.5522 58.1784 49.5522 59.3229C49.5522 60.4675 48.603 61.4167 47.4584 61.4167Z" fill="#EDA415"/>
<path d="M56.8103 15.41L45.6436 23.3942C44.164 24.455 42.0424 23.8129 41.4003 22.11L36.124 8.04001C35.2307 5.61126 31.797 5.61126 30.9036 8.04001L25.5995 22.0821C24.9574 23.8129 22.8636 24.455 21.384 23.3663L10.2174 15.3821C7.98405 13.8188 5.02488 16.0242 5.94613 18.6204L17.5595 51.1433C17.9503 52.26 19.0111 52.9858 20.1836 52.9858H46.7882C47.9607 52.9858 49.0215 52.2321 49.4124 51.1433L61.0257 18.6204C61.9749 16.0242 59.0157 13.8188 56.8103 15.41ZM40.479 41.1771H26.5207C25.3761 41.1771 24.427 40.2279 24.427 39.0833C24.427 37.9388 25.3761 36.9896 26.5207 36.9896H40.479C41.6236 36.9896 42.5728 37.9388 42.5728 39.0833C42.5728 40.2279 41.6236 41.1771 40.479 41.1771Z" fill="#EDA415"/>
</svg>
