<svg width="242" height="32" viewBox="0 0 242 32" fill="none" xmlns="http://www.w3.org/2000/svg">
<path d="M11.1397 24.7897L8.92267 22.391C8.3775 22.5485 7.77781 22.6272 7.1236 22.6272C5.94845 22.6272 4.86416 22.3546 3.87073 21.8094C2.88942 21.2522 2.108 20.4829 1.52649 19.5015C0.957082 18.5081 0.672381 17.3935 0.672381 16.1578C0.672381 14.9221 0.957082 13.8136 1.52649 12.8323C2.108 11.8509 2.88942 11.0877 3.87073 10.5425C4.86416 9.98524 5.94845 9.70659 7.1236 9.70659C8.31087 9.70659 9.39516 9.98524 10.3765 10.5425C11.3699 11.0877 12.1513 11.8509 12.7207 12.8323C13.2901 13.8136 13.5748 14.9221 13.5748 16.1578C13.5748 17.3209 13.3204 18.3749 12.8116 19.3198C12.3149 20.2527 11.6243 21.0038 10.7399 21.5732L13.7747 24.7897H11.1397ZM2.79856 16.1578C2.79856 17.0907 2.98028 17.9145 3.34373 18.6293C3.7193 19.3319 4.23418 19.8771 4.88839 20.2648C5.5426 20.6404 6.28767 20.8281 7.1236 20.8281C7.95953 20.8281 8.7046 20.6404 9.35881 20.2648C10.013 19.8771 10.5218 19.3319 10.8853 18.6293C11.2609 17.9145 11.4486 17.0907 11.4486 16.1578C11.4486 15.225 11.2609 14.4072 10.8853 13.7045C10.5218 13.0019 10.013 12.4627 9.35881 12.0872C8.7046 11.7116 7.95953 11.5238 7.1236 11.5238C6.28767 11.5238 5.5426 11.7116 4.88839 12.0872C4.23418 12.4627 3.7193 13.0019 3.34373 13.7045C2.98028 14.4072 2.79856 15.225 2.79856 16.1578ZM24.7347 12.487V22.5H22.663V21.3188C22.3359 21.7307 21.9058 22.0578 21.3728 22.3001C20.8518 22.5303 20.2946 22.6454 19.7009 22.6454C18.9135 22.6454 18.2047 22.4818 17.5747 22.1547C16.9569 21.8276 16.4662 21.343 16.1028 20.7009C15.7514 20.0588 15.5758 19.2835 15.5758 18.3749V12.487H17.6293V18.0659C17.6293 18.9624 17.8534 19.653 18.3016 20.1376C18.7499 20.6101 19.3617 20.8463 20.1371 20.8463C20.9124 20.8463 21.5242 20.6101 21.9725 20.1376C22.4328 19.653 22.663 18.9624 22.663 18.0659V12.487H24.7347ZM26.7775 17.4481C26.7775 16.4425 26.9835 15.5521 27.3954 14.7767C27.8194 14.0014 28.3888 13.4017 29.1036 12.9776C29.8305 12.5415 30.6301 12.3234 31.5024 12.3234C32.2898 12.3234 32.9743 12.4809 33.5559 12.7959C34.1495 13.0988 34.622 13.4804 34.9733 13.9408V12.487H37.0631V22.5H34.9733V21.0099C34.622 21.4823 34.1434 21.8761 33.5377 22.1911C32.9319 22.5061 32.2414 22.6636 31.466 22.6636C30.6059 22.6636 29.8184 22.4455 29.1036 22.0093C28.3888 21.5611 27.8194 20.9432 27.3954 20.1558C26.9835 19.3562 26.7775 18.4536 26.7775 17.4481ZM34.9733 17.4844C34.9733 16.7939 34.8279 16.1942 34.5372 15.6853C34.2585 15.1765 33.889 14.7888 33.4287 14.5223C32.9683 14.2558 32.4716 14.1225 31.9385 14.1225C31.4055 14.1225 30.9087 14.2558 30.4484 14.5223C29.988 14.7767 29.6124 15.1583 29.3217 15.6672C29.043 16.1639 28.9037 16.7575 28.9037 17.4481C28.9037 18.1386 29.043 18.7444 29.3217 19.2653C29.6124 19.7862 29.988 20.186 30.4484 20.4647C30.9209 20.7312 31.4176 20.8645 31.9385 20.8645C32.4716 20.8645 32.9683 20.7312 33.4287 20.4647C33.889 20.1982 34.2585 19.8105 34.5372 19.3016C34.8279 18.7807 34.9733 18.175 34.9733 17.4844ZM44.8361 12.3234C45.6236 12.3234 46.3263 12.487 46.9441 12.8141C47.5741 13.1412 48.0648 13.6258 48.4161 14.2679C48.7674 14.91 48.9431 15.6853 48.9431 16.594V22.5H46.8896V16.9029C46.8896 16.0064 46.6655 15.3219 46.2172 14.8494C45.769 14.3648 45.1572 14.1225 44.3818 14.1225C43.6065 14.1225 42.9886 14.3648 42.5282 14.8494C42.08 15.3219 41.8558 16.0064 41.8558 16.9029V22.5H39.7842V12.487H41.8558V13.6318C42.1951 13.2199 42.6251 12.8989 43.1461 12.6687C43.6791 12.4385 44.2425 12.3234 44.8361 12.3234ZM54.0026 14.177V19.7196C54.0026 20.0952 54.0874 20.3678 54.257 20.5374C54.4387 20.6949 54.7416 20.7736 55.1656 20.7736H56.4377V22.5H54.8021C53.8693 22.5 53.1545 22.2819 52.6578 21.8458C52.1611 21.4097 51.9127 20.7009 51.9127 19.7196V14.177H50.7315V12.487H51.9127V9.99735H54.0026V12.487H56.4377V14.177H54.0026ZM59.4011 11.1604C59.0255 11.1604 58.7105 11.0332 58.4561 10.7788C58.2017 10.5244 58.0745 10.2094 58.0745 9.8338C58.0745 9.45824 58.2017 9.14325 58.4561 8.88883C58.7105 8.63442 59.0255 8.50721 59.4011 8.50721C59.7645 8.50721 60.0734 8.63442 60.3279 8.88883C60.5823 9.14325 60.7095 9.45824 60.7095 9.8338C60.7095 10.2094 60.5823 10.5244 60.3279 10.7788C60.0734 11.0332 59.7645 11.1604 59.4011 11.1604ZM60.4187 12.487V22.5H58.3471V12.487H60.4187ZM65.5556 14.177V19.7196C65.5556 20.0952 65.6404 20.3678 65.81 20.5374C65.9917 20.6949 66.2946 20.7736 66.7186 20.7736H67.9907V22.5H66.3551C65.4223 22.5 64.7075 22.2819 64.2108 21.8458C63.7141 21.4097 63.4657 20.7009 63.4657 19.7196V14.177H62.2845V12.487H63.4657V9.99735H65.5556V12.487H67.9907V14.177H65.5556ZM78.9136 12.487L72.7713 27.2067H70.6269L72.6623 22.3364L68.7188 12.487H71.0267L73.8435 20.1194L76.7692 12.487H78.9136ZM86.0335 22.6272C85.6579 22.6272 85.3429 22.5 85.0885 22.2456C84.8341 21.9912 84.7069 21.6762 84.7069 21.3006C84.7069 20.9251 84.8341 20.6101 85.0885 20.3557C85.3429 20.1012 85.6579 19.974 86.0335 19.974C86.3969 19.974 86.7059 20.1012 86.9603 20.3557C87.2147 20.6101 87.3419 20.9251 87.3419 21.3006C87.3419 21.6762 87.2147 21.9912 86.9603 22.2456C86.7059 22.5 86.3969 22.6272 86.0335 22.6272ZM86.0335 14.9948C85.6579 14.9948 85.3429 14.8676 85.0885 14.6132C84.8341 14.3587 84.7069 14.0438 84.7069 13.6682C84.7069 13.2926 84.8341 12.9776 85.0885 12.7232C85.3429 12.4688 85.6579 12.3416 86.0335 12.3416C86.3969 12.3416 86.7059 12.4688 86.9603 12.7232C87.2147 12.9776 87.3419 13.2926 87.3419 13.6682C87.3419 14.0438 87.2147 14.3587 86.9603 14.6132C86.7059 14.8676 86.3969 14.9948 86.0335 14.9948Z" fill="#232323"/>
<rect x="108.582" y="0.5" width="34" height="31" fill="#EEEEEE"/>
<path d="M129.131 15.0493V16.7939H121.663V15.0493H129.131Z" fill="#434343"/>
<rect x="108.582" y="0.5" width="34" height="31" stroke="#BDBDBD"/>
<rect x="143.582" y="0.5" width="62" height="31" fill="#EEEEEE"/>
<path d="M171.899 11.1422V9.25228H175.679V22.5H173.589V11.1422H171.899Z" fill="#434343"/>
<rect x="143.582" y="0.5" width="62" height="31" stroke="#BDBDBD"/>
<rect x="206.582" y="0.5" width="34" height="31" fill="#EEEEEE"/>
<path d="M228.203 16.812H224.532V20.5737H222.606V16.812H218.935V15.0675H222.606V11.3058H224.532V15.0675H228.203V16.812Z" fill="#434343"/>
<rect x="206.582" y="0.5" width="34" height="31" stroke="#BDBDBD"/>
</svg>
