<svg width="338" height="79" viewBox="0 0 338 79" fill="none" xmlns="http://www.w3.org/2000/svg">
<rect y="0.562576" width="77" height="78" rx="38.5" fill="#E2F4FF"/>
<path d="M37.3483 34.2283H30.4562V37.2767C30.7508 36.9527 31.1631 36.6876 31.6933 36.4815C32.2234 36.2753 32.7978 36.1722 33.4163 36.1722C34.5208 36.1722 35.4338 36.4226 36.1554 36.9233C36.8918 37.424 37.4293 38.0719 37.768 38.8672C38.1067 39.6624 38.2761 40.5239 38.2761 41.4517C38.2761 43.1747 37.7901 44.5443 36.8182 45.5605C35.8462 46.5619 34.4766 47.0626 32.7094 47.0626C31.5313 47.0626 30.5078 46.8638 29.6389 46.4661C28.77 46.0538 28.1 45.4868 27.6287 44.7652C27.1575 44.0436 26.8997 43.2116 26.8556 42.269H30.5446C30.633 42.7256 30.8465 43.1085 31.1852 43.4177C31.5239 43.7123 31.9878 43.8595 32.5769 43.8595C33.269 43.8595 33.7845 43.6386 34.1232 43.1968C34.4619 42.755 34.6312 42.166 34.6312 41.4296C34.6312 40.708 34.4545 40.1558 34.1011 39.7729C33.7476 39.39 33.2322 39.1985 32.5548 39.1985C32.0541 39.1985 31.6417 39.3237 31.3177 39.5741C30.9938 39.8097 30.7802 40.1263 30.6771 40.5239H27.0323V30.9148H37.3483V34.2283ZM50.6551 33.7644L45.1105 47.0626H41.2448L46.8556 34.1841H39.9856V30.959H50.6551V33.7644Z" fill="#EDA415"/>
<rect x="87" y="0.562576" width="77" height="78" rx="38.5" fill="#E2F4FF"/>
<path d="M117.596 34.4492V30.9369H123.715V47.0626H119.783V34.4492H117.596ZM125.902 34.4492V30.9369H132.021V47.0626H128.089V34.4492H125.902Z" fill="#EDA415"/>
<rect x="174" y="0.562576" width="77" height="78" rx="38.5" fill="#E2F4FF"/>
<path d="M200.127 35.4874C200.185 33.9117 200.701 32.6967 201.673 31.8426C202.645 30.9884 203.963 30.5613 205.627 30.5613C206.732 30.5613 207.674 30.7528 208.455 31.1357C209.25 31.5186 209.846 32.0414 210.244 32.7041C210.656 33.3668 210.862 34.1105 210.862 34.9352C210.862 35.9071 210.619 36.7024 210.133 37.3209C209.647 37.9247 209.08 38.337 208.432 38.5579V38.6463C209.272 38.9261 209.935 39.39 210.421 40.038C210.907 40.6859 211.15 41.518 211.15 42.5341C211.15 43.4472 210.936 44.2571 210.509 44.964C210.097 45.6562 209.485 46.2011 208.675 46.5987C207.88 46.9963 206.93 47.1951 205.826 47.1951C204.059 47.1951 202.645 46.7607 201.585 45.8918C200.539 45.0229 199.987 43.7123 199.928 41.9598H203.595C203.609 42.6078 203.794 43.1232 204.147 43.5061C204.5 43.8743 205.016 44.0583 205.693 44.0583C206.268 44.0583 206.709 43.8963 207.019 43.5724C207.343 43.2336 207.505 42.7918 207.505 42.247C207.505 41.5401 207.276 41.032 206.82 40.7227C206.378 40.3988 205.664 40.2368 204.677 40.2368H203.97V37.1663H204.677C205.428 37.1663 206.032 37.0411 206.489 36.7907C206.96 36.5256 207.195 36.0618 207.195 35.3991C207.195 34.8689 207.048 34.4565 206.754 34.162C206.459 33.8675 206.054 33.7202 205.539 33.7202C204.979 33.7202 204.559 33.8896 204.28 34.2283C204.014 34.567 203.86 34.9867 203.816 35.4874H200.127ZM213.501 35.4874C213.56 33.9117 214.076 32.6967 215.048 31.8426C216.02 30.9884 217.338 30.5613 219.002 30.5613C220.106 30.5613 221.049 30.7528 221.829 31.1357C222.625 31.5186 223.221 32.0414 223.619 32.7041C224.031 33.3668 224.237 34.1105 224.237 34.9352C224.237 35.9071 223.994 36.7024 223.508 37.3209C223.022 37.9247 222.455 38.337 221.807 38.5579V38.6463C222.647 38.9261 223.309 39.39 223.795 40.038C224.281 40.6859 224.524 41.518 224.524 42.5341C224.524 43.4472 224.311 44.2571 223.884 44.964C223.471 45.6562 222.86 46.2011 222.05 46.5987C221.255 46.9963 220.305 47.1951 219.201 47.1951C217.433 47.1951 216.02 46.7607 214.959 45.8918C213.914 45.0229 213.361 43.7123 213.303 41.9598H216.97C216.984 42.6078 217.168 43.1232 217.522 43.5061C217.875 43.8743 218.391 44.0583 219.068 44.0583C219.642 44.0583 220.084 43.8963 220.393 43.5724C220.717 43.2336 220.879 42.7918 220.879 42.247C220.879 41.5401 220.651 41.032 220.195 40.7227C219.753 40.3988 219.039 40.2368 218.052 40.2368H217.345V37.1663H218.052C218.803 37.1663 219.407 37.0411 219.863 36.7907C220.335 36.5256 220.57 36.0618 220.57 35.3991C220.57 34.8689 220.423 34.4565 220.128 34.162C219.834 33.8675 219.429 33.7202 218.913 33.7202C218.354 33.7202 217.934 33.8896 217.654 34.2283C217.389 34.567 217.235 34.9867 217.19 35.4874H213.501Z" fill="#EDA415"/>
<rect x="261" y="0.562576" width="77" height="78" rx="38.5" fill="#E2F4FF"/>
<path d="M297.848 34.2283H290.956V37.2767C291.251 36.9527 291.663 36.6876 292.193 36.4815C292.723 36.2753 293.298 36.1722 293.916 36.1722C295.021 36.1722 295.934 36.4226 296.655 36.9233C297.392 37.424 297.929 38.0719 298.268 38.8672C298.607 39.6624 298.776 40.5239 298.776 41.4517C298.776 43.1747 298.29 44.5443 297.318 45.5605C296.346 46.5619 294.977 47.0626 293.209 47.0626C292.031 47.0626 291.008 46.8638 290.139 46.4661C289.27 46.0538 288.6 45.4868 288.129 44.7652C287.657 44.0436 287.4 43.2116 287.356 42.269H291.045C291.133 42.7256 291.346 43.1085 291.685 43.4177C292.024 43.7123 292.488 43.8595 293.077 43.8595C293.769 43.8595 294.284 43.6386 294.623 43.1968C294.962 42.755 295.131 42.166 295.131 41.4296C295.131 40.708 294.955 40.1558 294.601 39.7729C294.248 39.39 293.732 39.1985 293.055 39.1985C292.554 39.1985 292.142 39.3237 291.818 39.5741C291.494 39.8097 291.28 40.1263 291.177 40.5239H287.532V30.9148H297.848V34.2283ZM304.926 42.3353C305.147 43.4987 305.824 44.0804 306.958 44.0804C307.739 44.0804 308.291 43.7343 308.615 43.0422C308.939 42.35 309.101 41.2235 309.101 39.6624C308.777 40.119 308.335 40.4724 307.775 40.7227C307.216 40.9731 306.59 41.0983 305.898 41.0983C304.955 41.0983 304.116 40.9068 303.379 40.5239C302.643 40.1263 302.061 39.5446 301.634 38.7788C301.222 37.9983 301.016 37.0558 301.016 35.9513C301.016 34.8615 301.237 33.9117 301.679 33.1017C302.135 32.2917 302.776 31.6658 303.6 31.224C304.44 30.7822 305.426 30.5613 306.56 30.5613C308.74 30.5613 310.264 31.2388 311.133 32.5936C312.002 33.9485 312.436 35.9439 312.436 38.58C312.436 40.4945 312.26 42.0776 311.906 43.3294C311.567 44.5664 310.986 45.5089 310.161 46.1569C309.351 46.8049 308.239 47.1288 306.825 47.1288C305.706 47.1288 304.749 46.9079 303.954 46.4661C303.173 46.0243 302.569 45.4426 302.142 44.721C301.73 43.9994 301.494 43.2042 301.436 42.3353H304.926ZM306.759 38.1161C307.378 38.1161 307.871 37.932 308.239 37.5639C308.607 37.181 308.791 36.6655 308.791 36.0176C308.791 35.3107 308.6 34.7658 308.217 34.3829C307.834 34 307.319 33.8086 306.671 33.8086C306.023 33.8086 305.507 34.0074 305.125 34.405C304.756 34.7879 304.572 35.3181 304.572 35.9955C304.572 36.6287 304.756 37.1442 305.125 37.5418C305.507 37.9247 306.052 38.1161 306.759 38.1161Z" fill="#EDA415"/>
</svg>
