<svg width="315" height="143" viewBox="0 0 315 143" fill="none" xmlns="http://www.w3.org/2000/svg">
<path d="M5.52443 20.1272C4.67638 20.1272 3.91313 19.9818 3.2347 19.6911C2.55626 19.3882 2.0232 18.9642 1.63552 18.419C1.24784 17.8738 1.054 17.2378 1.054 16.5109H3.27104C3.3195 17.0561 3.53151 17.5043 3.90708 17.8557C4.29476 18.207 4.83387 18.3827 5.52443 18.3827C6.23921 18.3827 6.7965 18.213 7.19629 17.8738C7.59608 17.5225 7.79598 17.0742 7.79598 16.5291C7.79598 16.105 7.66877 15.7598 7.41436 15.4932C7.17206 15.2267 6.86313 15.0207 6.48757 14.8754C6.12412 14.73 5.61529 14.5725 4.96108 14.4029C4.13726 14.1848 3.46488 13.9667 2.94394 13.7487C2.43511 13.5185 1.99897 13.1672 1.63552 12.6947C1.27207 12.2222 1.09035 11.5922 1.09035 10.8047C1.09035 10.0778 1.27207 9.44181 1.63552 8.89663C1.99897 8.35146 2.5078 7.93349 3.16201 7.64273C3.81621 7.35197 4.5734 7.20659 5.43356 7.20659C6.65717 7.20659 7.65666 7.51553 8.43202 8.13339C9.21949 8.73914 9.65563 9.57507 9.74043 10.6412H7.45071C7.41436 10.1808 7.19629 9.78708 6.7965 9.45998C6.3967 9.13287 5.8697 8.96932 5.21549 8.96932C4.62186 8.96932 4.13726 9.12076 3.7617 9.42363C3.38613 9.72651 3.19835 10.1626 3.19835 10.732C3.19835 11.1197 3.31344 11.4408 3.54363 11.6952C3.78593 11.9375 4.0888 12.1313 4.45225 12.2767C4.8157 12.4221 5.31241 12.5796 5.94239 12.7492C6.77832 12.9794 7.45676 13.2096 7.97771 13.4397C8.51076 13.6699 8.95902 14.0273 9.32247 14.5119C9.69803 14.9844 9.88581 15.6204 9.88581 16.42C9.88581 17.0621 9.71015 17.6679 9.35881 18.2373C9.01959 18.8067 8.51682 19.267 7.8505 19.6184C7.19629 19.9576 6.42093 20.1272 5.52443 20.1272ZM16.2919 15.0026L20.9077 20H18.1091L14.402 15.6931V20H12.3303V6.55239H14.402V14.3665L18.0364 9.98698H20.9077L16.2919 15.0026ZM31.4606 9.98698V20H29.389V18.8188C29.0619 19.2307 28.6318 19.5578 28.0987 19.8001C27.5778 20.0303 27.0205 20.1454 26.4269 20.1454C25.6394 20.1454 24.9307 19.9818 24.3007 19.6547C23.6828 19.3276 23.1922 18.843 22.8287 18.2009C22.4774 17.5588 22.3017 16.7835 22.3017 15.8749V9.98698H24.3552V15.5659C24.3552 16.4624 24.5793 17.153 25.0276 17.6376C25.4758 18.1101 26.0876 18.3463 26.863 18.3463C27.6384 18.3463 28.2502 18.1101 28.6984 17.6376C29.1588 17.153 29.389 16.4624 29.389 15.5659V9.98698H31.4606ZM35.03 20.1272C34.6544 20.1272 34.3394 20 34.085 19.7456C33.8306 19.4912 33.7034 19.1762 33.7034 18.8006C33.7034 18.4251 33.8306 18.1101 34.085 17.8557C34.3394 17.6012 34.6544 17.474 35.03 17.474C35.3934 17.474 35.7023 17.6012 35.9568 17.8557C36.2112 18.1101 36.3384 18.4251 36.3384 18.8006C36.3384 19.1762 36.2112 19.4912 35.9568 19.7456C35.7023 20 35.3934 20.1272 35.03 20.1272ZM35.03 12.4948C34.6544 12.4948 34.3394 12.3676 34.085 12.1132C33.8306 11.8587 33.7034 11.5438 33.7034 11.1682C33.7034 10.7926 33.8306 10.4776 34.085 10.2232C34.3394 9.96881 34.6544 9.8416 35.03 9.8416C35.3934 9.8416 35.7023 9.96881 35.9568 10.2232C36.2112 10.4776 36.3384 10.7926 36.3384 11.1682C36.3384 11.5438 36.2112 11.8587 35.9568 12.1132C35.7023 12.3676 35.3934 12.4948 35.03 12.4948Z" fill="#232323"/>
<path d="M58.172 13.2035C58.172 11.1076 58.5233 9.47209 59.226 8.29694C59.9408 7.10967 61.1644 6.51604 62.8968 6.51604C64.6293 6.51604 65.8468 7.10967 66.5495 8.29694C67.2643 9.47209 67.6217 11.1076 67.6217 13.2035C67.6217 15.3236 67.2643 16.9834 66.5495 18.1828C65.8468 19.37 64.6293 19.9637 62.8968 19.9637C61.1644 19.9637 59.9408 19.37 59.226 18.1828C58.5233 16.9834 58.172 15.3236 58.172 13.2035ZM65.5863 13.2035C65.5863 12.2222 65.5197 11.3923 65.3864 10.7139C65.2653 10.0354 65.0109 9.48421 64.6232 9.06018C64.2355 8.62405 63.6601 8.40598 62.8968 8.40598C62.1336 8.40598 61.5581 8.62405 61.1704 9.06018C60.7828 9.48421 60.5223 10.0354 60.389 10.7139C60.2679 11.3923 60.2073 12.2222 60.2073 13.2035C60.2073 14.2212 60.2679 15.0753 60.389 15.7658C60.5102 16.4564 60.7646 17.0137 61.1523 17.4377C61.5521 17.8617 62.1336 18.0737 62.8968 18.0737C63.6601 18.0737 64.2355 17.8617 64.6232 17.4377C65.023 17.0137 65.2835 16.4564 65.4046 15.7658C65.5258 15.0753 65.5863 14.2212 65.5863 13.2035ZM69.5411 8.64222V6.75228H73.321V20H71.2312V8.64222H69.5411ZM75.8944 8.64222V6.75228H79.6743V20H77.5844V8.64222H75.8944ZM82.4839 10.0233C82.5566 8.89663 82.9867 8.0183 83.7741 7.38832C84.5737 6.75834 85.5914 6.44335 86.8271 6.44335C87.6751 6.44335 88.4081 6.59479 89.026 6.89766C89.6438 7.20054 90.1103 7.61245 90.4252 8.13339C90.7402 8.65433 90.8977 9.24191 90.8977 9.89612C90.8977 10.6472 90.6978 11.2893 90.298 11.8224C89.8982 12.3555 89.4197 12.7128 88.8624 12.8946V12.9673C89.5772 13.1853 90.1345 13.5851 90.5343 14.1666C90.9341 14.736 91.134 15.469 91.134 16.3655C91.134 17.0803 90.9704 17.7163 90.6433 18.2736C90.3162 18.8309 89.8316 19.2731 89.1895 19.6002C88.5474 19.9152 87.7781 20.0727 86.8816 20.0727C85.5732 20.0727 84.495 19.7395 83.6469 19.0732C82.811 18.3948 82.3627 17.4256 82.3022 16.1656H84.3011C84.3496 16.8077 84.5979 17.3347 85.0462 17.7466C85.4945 18.1464 86.1002 18.3463 86.8634 18.3463C87.6025 18.3463 88.1719 18.1464 88.5717 17.7466C88.9714 17.3347 89.1713 16.8077 89.1713 16.1656C89.1713 15.3176 88.8988 14.7179 88.3536 14.3665C87.8205 14.0031 86.9967 13.8214 85.8821 13.8214H85.4096V12.1132H85.9003C86.8816 12.101 87.6267 11.9375 88.1355 11.6225C88.6565 11.3075 88.9169 10.8108 88.9169 10.1324C88.9169 9.55084 88.7291 9.09047 88.3536 8.75125C87.978 8.39992 87.445 8.22425 86.7544 8.22425C86.076 8.22425 85.549 8.39992 85.1734 8.75125C84.7978 9.09047 84.5737 9.5145 84.501 10.0233H82.4839ZM93.2738 10.0233C93.3465 8.89663 93.7765 8.0183 94.564 7.38832C95.3636 6.75834 96.3813 6.44335 97.617 6.44335C98.465 6.44335 99.198 6.59479 99.8159 6.89766C100.434 7.20054 100.9 7.61245 101.215 8.13339C101.53 8.65433 101.688 9.24191 101.688 9.89612C101.688 10.6472 101.488 11.2893 101.088 11.8224C100.688 12.3555 100.21 12.7128 99.6523 12.8946V12.9673C100.367 13.1853 100.924 13.5851 101.324 14.1666C101.724 14.736 101.924 15.469 101.924 16.3655C101.924 17.0803 101.76 17.7163 101.433 18.2736C101.106 18.8309 100.622 19.2731 99.9794 19.6002C99.3373 19.9152 98.568 20.0727 97.6715 20.0727C96.3631 20.0727 95.2849 19.7395 94.4368 19.0732C93.6009 18.3948 93.1526 17.4256 93.092 16.1656H95.091C95.1395 16.8077 95.3878 17.3347 95.8361 17.7466C96.2843 18.1464 96.8901 18.3463 97.6533 18.3463C98.3923 18.3463 98.9618 18.1464 99.3615 17.7466C99.7613 17.3347 99.9612 16.8077 99.9612 16.1656C99.9612 15.3176 99.6887 14.7179 99.1435 14.3665C98.6104 14.0031 97.7866 13.8214 96.672 13.8214H96.1995V12.1132H96.6902C97.6715 12.101 98.4166 11.9375 98.9254 11.6225C99.4464 11.3075 99.7068 10.8108 99.7068 10.1324C99.7068 9.55084 99.519 9.09047 99.1435 8.75125C98.7679 8.39992 98.2349 8.22425 97.5443 8.22425C96.8659 8.22425 96.3389 8.39992 95.9633 8.75125C95.5877 9.09047 95.3636 9.5145 95.2909 10.0233H93.2738ZM112.06 12.5493V14.2939H104.591V12.5493H112.06ZM117.311 16.4019C117.432 17.0076 117.692 17.468 118.092 17.783C118.492 18.098 119.031 18.2554 119.709 18.2554C120.57 18.2554 121.2 17.9162 121.599 17.2378C121.999 16.5593 122.199 15.4024 122.199 13.7668C121.908 14.1788 121.496 14.4998 120.963 14.73C120.442 14.9481 119.873 15.0571 119.255 15.0571C118.468 15.0571 117.753 14.8996 117.111 14.5846C116.469 14.2575 115.96 13.779 115.584 13.149C115.221 12.5069 115.039 11.7315 115.039 10.8229C115.039 9.49027 115.427 8.43021 116.202 7.64273C116.99 6.84314 118.068 6.44335 119.437 6.44335C121.084 6.44335 122.254 6.99458 122.944 8.09704C123.647 9.18739 123.998 10.8653 123.998 13.1308C123.998 14.6936 123.865 15.9718 123.598 16.9652C123.344 17.9586 122.896 18.7098 122.254 19.2186C121.611 19.7274 120.721 19.9818 119.582 19.9818C118.286 19.9818 117.286 19.6426 116.584 18.9642C115.881 18.2857 115.487 17.4316 115.403 16.4019H117.311ZM119.619 13.3125C120.345 13.3125 120.915 13.0884 121.327 12.6402C121.751 12.1798 121.963 11.574 121.963 10.8229C121.963 9.98698 121.739 9.33883 121.29 8.87846C120.854 8.40598 120.255 8.16973 119.491 8.16973C118.728 8.16973 118.122 8.41203 117.674 8.89663C117.238 9.36912 117.02 9.99304 117.02 10.7684C117.02 11.5074 117.232 12.1192 117.656 12.6038C118.092 13.0763 118.746 13.3125 119.619 13.3125ZM134.225 12.5493V14.2939H126.756V12.5493H134.225ZM139.476 16.4019C139.597 17.0076 139.858 17.468 140.258 17.783C140.657 18.098 141.196 18.2554 141.875 18.2554C142.735 18.2554 143.365 17.9162 143.765 17.2378C144.165 16.5593 144.364 15.4024 144.364 13.7668C144.074 14.1788 143.662 14.4998 143.129 14.73C142.608 14.9481 142.038 15.0571 141.421 15.0571C140.633 15.0571 139.918 14.8996 139.276 14.5846C138.634 14.2575 138.125 13.779 137.75 13.149C137.386 12.5069 137.205 11.7315 137.205 10.8229C137.205 9.49027 137.592 8.43021 138.368 7.64273C139.155 6.84314 140.233 6.44335 141.602 6.44335C143.25 6.44335 144.419 6.99458 145.11 8.09704C145.812 9.18739 146.164 10.8653 146.164 13.1308C146.164 14.6936 146.03 15.9718 145.764 16.9652C145.509 17.9586 145.061 18.7098 144.419 19.2186C143.777 19.7274 142.886 19.9818 141.748 19.9818C140.451 19.9818 139.452 19.6426 138.749 18.9642C138.047 18.2857 137.653 17.4316 137.568 16.4019H139.476ZM141.784 13.3125C142.511 13.3125 143.08 13.0884 143.492 12.6402C143.916 12.1798 144.128 11.574 144.128 10.8229C144.128 9.98698 143.904 9.33883 143.456 8.87846C143.02 8.40598 142.42 8.16973 141.657 8.16973C140.894 8.16973 140.288 8.41203 139.84 8.89663C139.403 9.36912 139.185 9.99304 139.185 10.7684C139.185 11.5074 139.397 12.1192 139.821 12.6038C140.258 13.0763 140.912 13.3125 141.784 13.3125Z" fill="#434343"/>
<path d="M0.672381 71.6578C0.672381 70.4221 0.957082 69.3136 1.52649 68.3323C2.108 67.3509 2.88942 66.5877 3.87073 66.0425C4.86416 65.4852 5.94845 65.2066 7.1236 65.2066C8.46836 65.2066 9.66169 65.5398 10.7036 66.2061C11.7576 66.8603 12.5208 67.7931 12.9933 69.0046H10.5037C10.1766 68.3383 9.72226 67.8416 9.14074 67.5145C8.55922 67.1874 7.88684 67.0238 7.1236 67.0238C6.28767 67.0238 5.5426 67.2116 4.88839 67.5872C4.23418 67.9627 3.7193 68.5019 3.34373 69.2045C2.98028 69.9072 2.79856 70.725 2.79856 71.6578C2.79856 72.5907 2.98028 73.4084 3.34373 74.1111C3.7193 74.8138 4.23418 75.3589 4.88839 75.7466C5.5426 76.1222 6.28767 76.31 7.1236 76.31C7.88684 76.31 8.55922 76.1464 9.14074 75.8193C9.72226 75.4922 10.1766 74.9955 10.5037 74.3292H12.9933C12.5208 75.5407 11.7576 76.4735 10.7036 77.1277C9.66169 77.7819 8.46836 78.109 7.1236 78.109C5.93633 78.109 4.85204 77.8364 3.87073 77.2913C2.88942 76.734 2.108 75.9647 1.52649 74.9834C0.957082 74.0021 0.672381 72.8935 0.672381 71.6578ZM14.7276 72.9481C14.7276 71.9425 14.9336 71.0521 15.3455 70.2767C15.7695 69.5014 16.3389 68.9017 17.0537 68.4776C17.7806 68.0415 18.5802 67.8234 19.4525 67.8234C20.2399 67.8234 20.9244 67.9809 21.506 68.2959C22.0996 68.5988 22.5721 68.9804 22.9234 69.4408V67.987H25.0132V78H22.9234V76.5099C22.5721 76.9823 22.0935 77.3761 21.4878 77.6911C20.882 78.0061 20.1915 78.1636 19.4161 78.1636C18.556 78.1636 17.7685 77.9455 17.0537 77.5093C16.3389 77.0611 15.7695 76.4432 15.3455 75.6558C14.9336 74.8562 14.7276 73.9536 14.7276 72.9481ZM22.9234 72.9844C22.9234 72.2939 22.778 71.6942 22.4873 71.1853C22.2086 70.6765 21.8391 70.2888 21.3788 70.0223C20.9184 69.7558 20.4217 69.6225 19.8886 69.6225C19.3556 69.6225 18.8588 69.7558 18.3985 70.0223C17.9381 70.2767 17.5625 70.6583 17.2718 71.1672C16.9931 71.6639 16.8538 72.2575 16.8538 72.9481C16.8538 73.6386 16.9931 74.2444 17.2718 74.7653C17.5625 75.2862 17.9381 75.686 18.3985 75.9647C18.871 76.2312 19.3677 76.3645 19.8886 76.3645C20.4217 76.3645 20.9184 76.2312 21.3788 75.9647C21.8391 75.6982 22.2086 75.3105 22.4873 74.8016C22.778 74.2807 22.9234 73.675 22.9234 72.9844ZM30.1512 69.677V75.2196C30.1512 75.5952 30.236 75.8678 30.4056 76.0374C30.5874 76.1949 30.8902 76.2736 31.3143 76.2736H32.5863V78H30.9508C30.018 78 29.3032 77.7819 28.8065 77.3458C28.3097 76.9097 28.0614 76.2009 28.0614 75.2196V69.677H26.8802V67.987H28.0614V65.4974H30.1512V67.987H32.5863V69.677H30.1512ZM43.6728 72.7482C43.6728 73.1237 43.6486 73.4629 43.6001 73.7658H35.9495C36.0101 74.5654 36.3069 75.2075 36.84 75.6921C37.373 76.1767 38.0272 76.419 38.8026 76.419C39.9172 76.419 40.7046 75.9526 41.165 75.0197H43.4002C43.0973 75.9405 42.5461 76.6976 41.7465 77.2913C40.959 77.8728 39.9777 78.1636 38.8026 78.1636C37.8455 78.1636 36.9853 77.9515 36.2221 77.5275C35.471 77.0914 34.8773 76.4856 34.4412 75.7103C34.0172 74.9228 33.8052 74.0142 33.8052 72.9844C33.8052 71.9546 34.0111 71.0521 34.423 70.2767C34.847 69.4892 35.4346 68.8835 36.1858 68.4595C36.949 68.0354 37.8213 67.8234 38.8026 67.8234C39.7476 67.8234 40.5895 68.0294 41.3286 68.4413C42.0676 68.8532 42.643 69.4347 43.0549 70.1858C43.4668 70.9249 43.6728 71.779 43.6728 72.7482ZM41.5103 72.094C41.4982 71.3307 41.2256 70.7189 40.6925 70.2585C40.1595 69.7982 39.4992 69.568 38.7117 69.568C37.9969 69.568 37.3851 69.7982 36.8763 70.2585C36.3675 70.7068 36.0646 71.3186 35.9677 72.094H41.5103ZM49.7458 67.8234C50.5212 67.8234 51.2057 67.9809 51.7993 68.2959C52.405 68.5988 52.8775 68.9804 53.2167 69.4408V67.987H55.3066V78.1636C55.3066 79.0843 55.1127 79.902 54.7251 80.6168C54.3374 81.3437 53.774 81.9131 53.035 82.325C52.3081 82.737 51.4358 82.9429 50.4182 82.9429C49.0613 82.9429 47.9346 82.6219 47.0381 81.9798C46.1416 81.3498 45.6328 80.4896 45.5116 79.3993H47.5651C47.7226 79.9202 48.0558 80.3382 48.5646 80.6532C49.0855 80.9803 49.7034 81.1438 50.4182 81.1438C51.2541 81.1438 51.9265 80.8894 52.4353 80.3806C52.9563 79.8718 53.2167 79.1327 53.2167 78.1636V76.4917C52.8654 76.9642 52.3869 77.364 51.7811 77.6911C51.1875 78.0061 50.509 78.1636 49.7458 78.1636C48.8735 78.1636 48.0739 77.9455 47.347 77.5093C46.6323 77.0611 46.0629 76.4432 45.6388 75.6558C45.2269 74.8562 45.021 73.9536 45.021 72.9481C45.021 71.9425 45.2269 71.0521 45.6388 70.2767C46.0629 69.5014 46.6323 68.9017 47.347 68.4776C48.0739 68.0415 48.8735 67.8234 49.7458 67.8234ZM53.2167 72.9844C53.2167 72.2939 53.0714 71.6942 52.7806 71.1853C52.502 70.6765 52.1325 70.2888 51.6721 70.0223C51.2117 69.7558 50.715 69.6225 50.1819 69.6225C49.6489 69.6225 49.1522 69.7558 48.6918 70.0223C48.2314 70.2767 47.8559 70.6583 47.5651 71.1672C47.2865 71.6639 47.1471 72.2575 47.1471 72.9481C47.1471 73.6386 47.2865 74.2444 47.5651 74.7653C47.8559 75.2862 48.2314 75.686 48.6918 75.9647C49.1643 76.2312 49.661 76.3645 50.1819 76.3645C50.715 76.3645 51.2117 76.2312 51.6721 75.9647C52.1325 75.6982 52.502 75.3105 52.7806 74.8016C53.0714 74.2807 53.2167 73.675 53.2167 72.9844ZM62.3708 78.1636C61.4259 78.1636 60.5718 77.9515 59.8085 77.5275C59.0453 77.0914 58.4456 76.4856 58.0094 75.7103C57.5733 74.9228 57.3552 74.0142 57.3552 72.9844C57.3552 71.9667 57.5794 71.0642 58.0276 70.2767C58.4759 69.4892 59.0877 68.8835 59.863 68.4595C60.6384 68.0354 61.5046 67.8234 62.4617 67.8234C63.4188 67.8234 64.285 68.0354 65.0604 68.4595C65.8357 68.8835 66.4475 69.4892 66.8958 70.2767C67.344 71.0642 67.5682 71.9667 67.5682 72.9844C67.5682 74.0021 67.338 74.9046 66.8776 75.6921C66.4172 76.4796 65.7873 77.0914 64.9877 77.5275C64.2002 77.9515 63.3279 78.1636 62.3708 78.1636ZM62.3708 76.3645C62.9039 76.3645 63.4006 76.2373 63.861 75.9829C64.3335 75.7284 64.7151 75.3468 65.0058 74.838C65.2966 74.3292 65.442 73.7113 65.442 72.9844C65.442 72.2575 65.3027 71.6457 65.024 71.149C64.7454 70.6402 64.3759 70.2585 63.9155 70.0041C63.4551 69.7497 62.9584 69.6225 62.4254 69.6225C61.8923 69.6225 61.3956 69.7497 60.9352 70.0041C60.487 70.2585 60.1296 70.6402 59.863 71.149C59.5965 71.6457 59.4632 72.2575 59.4632 72.9844C59.4632 74.0626 59.7358 74.8986 60.281 75.4922C60.8383 76.0737 61.5349 76.3645 62.3708 76.3645ZM71.6878 69.4408C71.9906 68.9319 72.3904 68.5382 72.8871 68.2596C73.396 67.9688 73.9957 67.8234 74.6862 67.8234V69.9678H74.1592C73.3475 69.9678 72.7296 70.1737 72.3056 70.5856C71.8937 70.9975 71.6878 71.7123 71.6878 72.73V78H69.6161V67.987H71.6878V69.4408ZM85.604 67.987L79.4617 82.7067H77.3174L79.3527 77.8364L75.4093 67.987H77.7172L80.5339 75.6194L83.4597 67.987H85.604ZM88.0034 78.1272C87.6278 78.1272 87.3128 78 87.0584 77.7456C86.804 77.4912 86.6768 77.1762 86.6768 76.8006C86.6768 76.4251 86.804 76.1101 87.0584 75.8557C87.3128 75.6012 87.6278 75.474 88.0034 75.474C88.3668 75.474 88.6757 75.6012 88.9302 75.8557C89.1846 76.1101 89.3118 76.4251 89.3118 76.8006C89.3118 77.1762 89.1846 77.4912 88.9302 77.7456C88.6757 78 88.3668 78.1272 88.0034 78.1272ZM88.0034 70.4948C87.6278 70.4948 87.3128 70.3676 87.0584 70.1132C86.804 69.8587 86.6768 69.5438 86.6768 69.1682C86.6768 68.7926 86.804 68.4776 87.0584 68.2232C87.3128 67.9688 87.6278 67.8416 88.0034 67.8416C88.3668 67.8416 88.6757 67.9688 88.9302 68.2232C89.1846 68.4776 89.3118 68.7926 89.3118 69.1682C89.3118 69.5438 89.1846 69.8587 88.9302 70.1132C88.6757 70.3676 88.3668 70.4948 88.0034 70.4948Z" fill="#232323"/>
<path d="M110.753 75.5386C111.868 74.643 112.742 73.9099 113.374 73.3392C114.006 72.7597 114.537 72.1583 114.968 71.5349C115.407 70.9027 115.626 70.2838 115.626 69.6779C115.626 69.1072 115.486 68.6595 115.205 68.3346C114.933 68.001 114.489 67.8341 113.875 67.8341C113.278 67.8341 112.812 68.0229 112.479 68.4004C112.154 68.7692 111.978 69.2653 111.952 69.8887H110.793C110.828 68.9053 111.126 68.1458 111.688 67.6102C112.25 67.0747 112.975 66.8069 113.861 66.8069C114.766 66.8069 115.481 67.0571 116.008 67.5576C116.544 68.058 116.812 68.7473 116.812 69.6253C116.812 70.354 116.592 71.0652 116.153 71.7588C115.723 72.4436 115.231 73.0495 114.678 73.5763C114.125 74.0943 113.418 74.7001 112.558 75.3937H117.088V76.3946H110.753V75.5386ZM118.473 71.6403C118.473 70.1301 118.719 68.9536 119.211 68.1107C119.703 67.259 120.563 66.8332 121.792 66.8332C123.013 66.8332 123.869 67.259 124.36 68.1107C124.852 68.9536 125.098 70.1301 125.098 71.6403C125.098 73.1768 124.852 74.3708 124.36 75.2225C123.869 76.0742 123.013 76.5 121.792 76.5C120.563 76.5 119.703 76.0742 119.211 75.2225C118.719 74.3708 118.473 73.1768 118.473 71.6403ZM123.913 71.6403C123.913 70.8764 123.86 70.2311 123.755 69.7043C123.658 69.1687 123.452 68.7385 123.136 68.4136C122.828 68.0888 122.381 67.9263 121.792 67.9263C121.195 67.9263 120.739 68.0888 120.423 68.4136C120.115 68.7385 119.909 69.1687 119.804 69.7043C119.707 70.2311 119.659 70.8764 119.659 71.6403C119.659 72.4305 119.707 73.0934 119.804 73.6289C119.909 74.1645 120.115 74.5947 120.423 74.9196C120.739 75.2445 121.195 75.4069 121.792 75.4069C122.381 75.4069 122.828 75.2445 123.136 74.9196C123.452 74.5947 123.658 74.1645 123.755 73.6289C123.86 73.0934 123.913 72.4305 123.913 71.6403ZM126.48 69.1248C126.48 68.5278 126.66 68.0536 127.02 67.7024C127.38 67.3425 127.841 67.1625 128.403 67.1625C128.965 67.1625 129.426 67.3425 129.786 67.7024C130.146 68.0536 130.326 68.5278 130.326 69.1248C130.326 69.7306 130.146 70.2135 129.786 70.5735C129.426 70.9247 128.965 71.1003 128.403 71.1003C127.841 71.1003 127.38 70.9247 127.02 70.5735C126.66 70.2135 126.48 69.7306 126.48 69.1248ZM134.171 67.3073L128.837 76.5H127.652L132.986 67.3073H134.171ZM128.403 67.9C128.104 67.9 127.867 68.0053 127.692 68.2161C127.525 68.418 127.441 68.7209 127.441 69.1248C127.441 69.5287 127.525 69.836 127.692 70.0467C127.867 70.2574 128.104 70.3628 128.403 70.3628C128.701 70.3628 128.938 70.2574 129.114 70.0467C129.29 69.8272 129.377 69.5199 129.377 69.1248C129.377 68.7209 129.29 68.418 129.114 68.2161C128.938 68.0053 128.701 67.9 128.403 67.9ZM131.524 74.6825C131.524 74.0767 131.704 73.5982 132.064 73.247C132.424 72.887 132.885 72.707 133.447 72.707C134.009 72.707 134.465 72.887 134.817 73.247C135.177 73.5982 135.357 74.0767 135.357 74.6825C135.357 75.2796 135.177 75.7581 134.817 76.1181C134.465 76.478 134.009 76.658 133.447 76.658C132.885 76.658 132.424 76.4824 132.064 76.1312C131.704 75.7713 131.524 75.2884 131.524 74.6825ZM133.434 73.4577C133.135 73.4577 132.898 73.5631 132.723 73.7738C132.547 73.9757 132.459 74.2787 132.459 74.6825C132.459 75.0776 132.547 75.3805 132.723 75.5913C132.898 75.7932 133.135 75.8942 133.434 75.8942C133.732 75.8942 133.969 75.7932 134.145 75.5913C134.32 75.3805 134.408 75.0776 134.408 74.6825C134.408 74.2787 134.32 73.9757 134.145 73.7738C133.969 73.5631 133.732 73.4577 133.434 73.4577ZM143.593 76.6185C142.917 76.6185 142.302 76.4649 141.749 76.1576C141.205 75.8503 140.775 75.4157 140.458 74.8537C140.151 74.283 139.997 73.6245 139.997 72.8782C139.997 72.1407 140.156 71.491 140.472 70.9291C140.796 70.3584 141.235 69.9238 141.789 69.6253C142.342 69.318 142.961 69.1643 143.646 69.1643C144.33 69.1643 144.949 69.318 145.503 69.6253C146.056 69.9238 146.49 70.354 146.806 70.9159C147.131 71.4778 147.294 72.1319 147.294 72.8782C147.294 73.6245 147.127 74.283 146.793 74.8537C146.468 75.4157 146.025 75.8503 145.463 76.1576C144.901 76.4649 144.278 76.6185 143.593 76.6185ZM143.593 75.5649C144.023 75.5649 144.427 75.464 144.805 75.262C145.182 75.0601 145.485 74.7572 145.713 74.3533C145.95 73.9494 146.069 73.4577 146.069 72.8782C146.069 72.2988 145.955 71.8071 145.726 71.4032C145.498 70.9993 145.2 70.7008 144.831 70.5076C144.462 70.3057 144.063 70.2047 143.632 70.2047C143.193 70.2047 142.79 70.3057 142.421 70.5076C142.061 70.7008 141.771 70.9993 141.552 71.4032C141.332 71.8071 141.222 72.2988 141.222 72.8782C141.222 73.4665 141.328 73.9626 141.538 74.3665C141.758 74.7703 142.048 75.0732 142.408 75.2752C142.768 75.4683 143.163 75.5649 143.593 75.5649ZM151.806 70.2706H150.292V76.5H149.093V70.2706H148.158V69.2828H149.093V68.7692C149.093 67.9614 149.3 67.3732 149.712 67.0044C150.134 66.6269 150.805 66.4381 151.727 66.4381V67.439C151.201 67.439 150.827 67.5444 150.608 67.7551C150.397 67.9571 150.292 68.2951 150.292 68.7692V69.2828H151.806V70.2706ZM156.141 70.2706H154.626V76.5H153.428V70.2706H152.493V69.2828H153.428V68.7692C153.428 67.9614 153.634 67.3732 154.047 67.0044C154.468 66.6269 155.14 66.4381 156.062 66.4381V67.439C155.535 67.439 155.162 67.5444 154.942 67.7551C154.731 67.9571 154.626 68.2951 154.626 68.7692V69.2828H156.141V70.2706ZM158.776 74.8406L157.301 78.3833H156.498L157.459 74.8406H158.776Z" fill="#434343"/>
<path d="M174.198 74.3796V73.4709L178.821 67.0703H180.257V73.3392H181.574V74.3796H180.257V76.5H179.071V74.3796H174.198ZM179.124 68.3214L175.581 73.3392H179.124V68.3214ZM184.312 73.945C184.4 74.4455 184.601 74.8318 184.918 75.104C185.242 75.3762 185.677 75.5122 186.221 75.5122C186.95 75.5122 187.486 75.2269 187.828 74.6562C188.179 74.0855 188.346 73.1241 188.329 71.772C188.144 72.1671 187.837 72.4788 187.407 72.707C186.976 72.9265 186.498 73.0363 185.971 73.0363C185.383 73.0363 184.856 72.9178 184.391 72.6807C183.934 72.4349 183.574 72.0793 183.311 71.6139C183.047 71.1486 182.916 70.5867 182.916 69.9282C182.916 68.9887 183.188 68.2336 183.732 67.6629C184.277 67.0834 185.049 66.7937 186.05 66.7937C187.279 66.7937 188.14 67.1932 188.632 67.9922C189.132 68.7912 189.382 69.9808 189.382 71.5612C189.382 72.6675 189.281 73.5806 189.079 74.3006C188.886 75.0206 188.552 75.5693 188.078 75.9469C187.613 76.3244 186.972 76.5132 186.156 76.5132C185.26 76.5132 184.562 76.2717 184.062 75.7888C183.561 75.3059 183.276 74.6913 183.205 73.945H184.312ZM186.169 72.0222C186.757 72.0222 187.24 71.8422 187.617 71.4822C187.995 71.1135 188.184 70.6174 188.184 69.994C188.184 69.3355 187.999 68.8043 187.631 68.4004C187.262 67.9966 186.744 67.7946 186.077 67.7946C185.462 67.7946 184.97 67.9878 184.601 68.3741C184.242 68.7604 184.062 69.2697 184.062 69.9018C184.062 70.5428 184.242 71.0564 184.601 71.4427C184.961 71.829 185.484 72.0222 186.169 72.0222ZM190.803 69.1248C190.803 68.5278 190.983 68.0536 191.343 67.7024C191.703 67.3425 192.164 67.1625 192.726 67.1625C193.288 67.1625 193.749 67.3425 194.109 67.7024C194.469 68.0536 194.649 68.5278 194.649 69.1248C194.649 69.7306 194.469 70.2135 194.109 70.5735C193.749 70.9247 193.288 71.1003 192.726 71.1003C192.164 71.1003 191.703 70.9247 191.343 70.5735C190.983 70.2135 190.803 69.7306 190.803 69.1248ZM198.494 67.3073L193.16 76.5H191.975L197.309 67.3073H198.494ZM192.726 67.9C192.427 67.9 192.19 68.0053 192.015 68.2161C191.848 68.418 191.764 68.7209 191.764 69.1248C191.764 69.5287 191.848 69.836 192.015 70.0467C192.19 70.2574 192.427 70.3628 192.726 70.3628C193.024 70.3628 193.261 70.2574 193.437 70.0467C193.613 69.8272 193.7 69.5199 193.7 69.1248C193.7 68.7209 193.613 68.418 193.437 68.2161C193.261 68.0053 193.024 67.9 192.726 67.9ZM195.847 74.6825C195.847 74.0767 196.027 73.5982 196.387 73.247C196.747 72.887 197.208 72.707 197.77 72.707C198.332 72.707 198.788 72.887 199.14 73.247C199.5 73.5982 199.68 74.0767 199.68 74.6825C199.68 75.2796 199.5 75.7581 199.14 76.1181C198.788 76.478 198.332 76.658 197.77 76.658C197.208 76.658 196.747 76.4824 196.387 76.1312C196.027 75.7713 195.847 75.2884 195.847 74.6825ZM197.757 73.4577C197.458 73.4577 197.221 73.5631 197.046 73.7738C196.87 73.9757 196.782 74.2787 196.782 74.6825C196.782 75.0776 196.87 75.3805 197.046 75.5913C197.221 75.7932 197.458 75.8942 197.757 75.8942C198.055 75.8942 198.292 75.7932 198.468 75.5913C198.644 75.3805 198.731 75.0776 198.731 74.6825C198.731 74.2787 198.644 73.9757 198.468 73.7738C198.292 73.5631 198.055 73.4577 197.757 73.4577ZM207.916 76.6185C207.24 76.6185 206.625 76.4649 206.072 76.1576C205.528 75.8503 205.098 75.4157 204.782 74.8537C204.474 74.283 204.321 73.6245 204.321 72.8782C204.321 72.1407 204.479 71.491 204.795 70.9291C205.12 70.3584 205.559 69.9238 206.112 69.6253C206.665 69.318 207.284 69.1643 207.969 69.1643C208.654 69.1643 209.273 69.318 209.826 69.6253C210.379 69.9238 210.813 70.354 211.129 70.9159C211.454 71.4778 211.617 72.1319 211.617 72.8782C211.617 73.6245 211.45 74.283 211.116 74.8537C210.791 75.4157 210.348 75.8503 209.786 76.1576C209.224 76.4649 208.601 76.6185 207.916 76.6185ZM207.916 75.5649C208.346 75.5649 208.75 75.464 209.128 75.262C209.505 75.0601 209.808 74.7572 210.036 74.3533C210.273 73.9494 210.392 73.4577 210.392 72.8782C210.392 72.2988 210.278 71.8071 210.05 71.4032C209.821 70.9993 209.523 70.7008 209.154 70.5076C208.785 70.3057 208.386 70.2047 207.956 70.2047C207.517 70.2047 207.113 70.3057 206.744 70.5076C206.384 70.7008 206.094 70.9993 205.875 71.4032C205.655 71.8071 205.545 72.2988 205.545 72.8782C205.545 73.4665 205.651 73.9626 205.861 74.3665C206.081 74.7703 206.371 75.0732 206.731 75.2752C207.091 75.4683 207.486 75.5649 207.916 75.5649ZM216.129 70.2706H214.615V76.5H213.416V70.2706H212.481V69.2828H213.416V68.7692C213.416 67.9614 213.623 67.3732 214.035 67.0044C214.457 66.6269 215.129 66.4381 216.05 66.4381V67.439C215.524 67.439 215.15 67.5444 214.931 67.7551C214.72 67.9571 214.615 68.2951 214.615 68.7692V69.2828H216.129V70.2706ZM220.464 70.2706H218.949V76.5H217.751V70.2706H216.816V69.2828H217.751V68.7692C217.751 67.9614 217.957 67.3732 218.37 67.0044C218.791 66.6269 219.463 66.4381 220.385 66.4381V67.439C219.858 67.439 219.485 67.5444 219.265 67.7551C219.055 67.9571 218.949 68.2951 218.949 68.7692V69.2828H220.464V70.2706Z" fill="#434343"/>
<path d="M241.702 74.4586H237.698L236.961 76.5H235.696L239.015 67.3732H240.398L243.704 76.5H242.439L241.702 74.4586ZM241.359 73.4841L239.7 68.8482L238.04 73.4841H241.359ZM246.349 66.7542V76.5H245.15V66.7542H246.349ZM254.976 72.6148C254.976 72.8431 254.963 73.0846 254.937 73.3392H249.168C249.212 74.0504 249.453 74.6079 249.892 75.0118C250.34 75.4069 250.88 75.6044 251.512 75.6044C252.03 75.6044 252.461 75.4859 252.803 75.2488C253.154 75.003 253.4 74.6781 253.541 74.2743H254.831C254.638 74.9679 254.252 75.5342 253.672 75.9732C253.093 76.4034 252.373 76.6185 251.512 76.6185C250.828 76.6185 250.213 76.4649 249.669 76.1576C249.133 75.8503 248.712 75.4157 248.404 74.8537C248.097 74.283 247.943 73.6245 247.943 72.8782C247.943 72.1319 248.093 71.4778 248.391 70.9159C248.69 70.354 249.107 69.9238 249.642 69.6253C250.187 69.318 250.81 69.1643 251.512 69.1643C252.197 69.1643 252.803 69.3136 253.33 69.6121C253.857 69.9106 254.261 70.3233 254.541 70.8501C254.831 71.3681 254.976 71.9563 254.976 72.6148ZM253.738 72.3646C253.738 71.9081 253.637 71.5173 253.435 71.1925C253.233 70.8588 252.957 70.6086 252.605 70.4418C252.263 70.2662 251.881 70.1784 251.46 70.1784C250.854 70.1784 250.336 70.3716 249.906 70.7579C249.484 71.1442 249.243 71.6798 249.181 72.3646H253.738ZM260.325 76.5L258.613 73.8133L256.966 76.5H255.715L258.046 72.9178L255.715 69.2828H257.072L258.784 71.9563L260.417 69.2828H261.668L259.35 72.8519L261.681 76.5H260.325ZM267.57 70.455C267.78 70.0423 268.079 69.7218 268.465 69.4936C268.86 69.2653 269.339 69.1511 269.901 69.1511V70.3891H269.585C268.241 70.3891 267.57 71.1179 267.57 72.5753V76.5H266.371V69.2828H267.57V70.455ZM277.869 72.6148C277.869 72.8431 277.856 73.0846 277.83 73.3392H272.061C272.105 74.0504 272.347 74.6079 272.786 75.0118C273.233 75.4069 273.773 75.6044 274.406 75.6044C274.924 75.6044 275.354 75.4859 275.696 75.2488C276.047 75.003 276.293 74.6781 276.434 74.2743H277.724C277.531 74.9679 277.145 75.5342 276.565 75.9732C275.986 76.4034 275.266 76.6185 274.406 76.6185C273.721 76.6185 273.106 76.4649 272.562 76.1576C272.026 75.8503 271.605 75.4157 271.297 74.8537C270.99 74.283 270.836 73.6245 270.836 72.8782C270.836 72.1319 270.986 71.4778 271.284 70.9159C271.583 70.354 272 69.9238 272.535 69.6253C273.08 69.318 273.703 69.1643 274.406 69.1643C275.09 69.1643 275.696 69.3136 276.223 69.6121C276.75 69.9106 277.154 70.3233 277.435 70.8501C277.724 71.3681 277.869 71.9563 277.869 72.6148ZM276.631 72.3646C276.631 71.9081 276.53 71.5173 276.328 71.1925C276.126 70.8588 275.85 70.6086 275.499 70.4418C275.156 70.2662 274.774 70.1784 274.353 70.1784C273.747 70.1784 273.229 70.3716 272.799 70.7579C272.377 71.1442 272.136 71.6798 272.074 72.3646H276.631ZM288.13 69.1511C288.692 69.1511 289.193 69.2697 289.632 69.5067C290.071 69.735 290.417 70.0818 290.672 70.5472C290.927 71.0125 291.054 71.5788 291.054 72.2461V76.5H289.869V72.4173C289.869 71.6973 289.689 71.1486 289.329 70.771C288.977 70.3847 288.499 70.1916 287.893 70.1916C287.27 70.1916 286.774 70.3935 286.405 70.7974C286.036 71.1925 285.852 71.7676 285.852 72.5227V76.5H284.667V72.4173C284.667 71.6973 284.487 71.1486 284.127 70.771C283.775 70.3847 283.297 70.1916 282.691 70.1916C282.068 70.1916 281.572 70.3935 281.203 70.7974C280.834 71.1925 280.65 71.7676 280.65 72.5227V76.5H279.451V69.2828H280.65V70.3233C280.887 69.9457 281.203 69.656 281.598 69.454C282.002 69.2521 282.445 69.1511 282.928 69.1511C283.534 69.1511 284.069 69.2872 284.535 69.5594C285 69.8316 285.347 70.2311 285.575 70.7579C285.777 70.2486 286.111 69.8535 286.576 69.5726C287.042 69.2916 287.56 69.1511 288.13 69.1511ZM296.168 76.6185C295.491 76.6185 294.877 76.4649 294.324 76.1576C293.779 75.8503 293.349 75.4157 293.033 74.8537C292.726 74.283 292.572 73.6245 292.572 72.8782C292.572 72.1407 292.73 71.491 293.046 70.9291C293.371 70.3584 293.81 69.9238 294.363 69.6253C294.916 69.318 295.535 69.1643 296.22 69.1643C296.905 69.1643 297.524 69.318 298.077 69.6253C298.63 69.9238 299.065 70.354 299.381 70.9159C299.706 71.4778 299.868 72.1319 299.868 72.8782C299.868 73.6245 299.701 74.283 299.368 74.8537C299.043 75.4157 298.6 75.8503 298.038 76.1576C297.476 76.4649 296.852 76.6185 296.168 76.6185ZM296.168 75.5649C296.598 75.5649 297.002 75.464 297.379 75.262C297.757 75.0601 298.06 74.7572 298.288 74.3533C298.525 73.9494 298.643 73.4577 298.643 72.8782C298.643 72.2988 298.529 71.8071 298.301 71.4032C298.073 70.9993 297.774 70.7008 297.406 70.5076C297.037 70.3057 296.637 70.2047 296.207 70.2047C295.768 70.2047 295.364 70.3057 294.995 70.5076C294.635 70.7008 294.346 70.9993 294.126 71.4032C293.907 71.8071 293.797 72.2988 293.797 72.8782C293.797 73.4665 293.902 73.9626 294.113 74.3665C294.333 74.7703 294.622 75.0732 294.982 75.2752C295.342 75.4683 295.737 75.5649 296.168 75.5649ZM302.906 70.2706V74.5245C302.906 74.8757 302.981 75.1259 303.13 75.2752C303.279 75.4157 303.538 75.4859 303.907 75.4859H304.789V76.5H303.709C303.042 76.5 302.542 76.3463 302.208 76.039C301.874 75.7317 301.707 75.2269 301.707 74.5245V70.2706H300.772V69.2828H301.707V67.4654H302.906V69.2828H304.789V70.2706H302.906ZM312.826 72.6148C312.826 72.8431 312.813 73.0846 312.787 73.3392H307.018C307.062 74.0504 307.304 74.6079 307.743 75.0118C308.19 75.4069 308.73 75.6044 309.363 75.6044C309.881 75.6044 310.311 75.4859 310.653 75.2488C311.004 75.003 311.25 74.6781 311.391 74.2743H312.681C312.488 74.9679 312.102 75.5342 311.523 75.9732C310.943 76.4034 310.223 76.6185 309.363 76.6185C308.678 76.6185 308.063 76.4649 307.519 76.1576C306.983 75.8503 306.562 75.4157 306.255 74.8537C305.947 74.283 305.794 73.6245 305.794 72.8782C305.794 72.1319 305.943 71.4778 306.241 70.9159C306.54 70.354 306.957 69.9238 307.492 69.6253C308.037 69.318 308.66 69.1643 309.363 69.1643C310.047 69.1643 310.653 69.3136 311.18 69.6121C311.707 69.9106 312.111 70.3233 312.392 70.8501C312.681 71.3681 312.826 71.9563 312.826 72.6148ZM311.588 72.3646C311.588 71.9081 311.487 71.5173 311.285 71.1925C311.084 70.8588 310.807 70.6086 310.456 70.4418C310.113 70.2662 309.731 70.1784 309.31 70.1784C308.704 70.1784 308.186 70.3716 307.756 70.7579C307.334 71.1442 307.093 71.6798 307.032 72.3646H311.588Z" fill="#434343"/>
<path d="M5.52443 136.127C4.67638 136.127 3.91313 135.982 3.2347 135.691C2.55626 135.388 2.0232 134.964 1.63552 134.419C1.24784 133.874 1.054 133.238 1.054 132.511H3.27104C3.3195 133.056 3.53151 133.504 3.90708 133.856C4.29476 134.207 4.83387 134.383 5.52443 134.383C6.23921 134.383 6.7965 134.213 7.19629 133.874C7.59608 133.522 7.79598 133.074 7.79598 132.529C7.79598 132.105 7.66877 131.76 7.41436 131.493C7.17206 131.227 6.86313 131.021 6.48757 130.875C6.12412 130.73 5.61529 130.572 4.96108 130.403C4.13726 130.185 3.46488 129.967 2.94394 129.749C2.43511 129.518 1.99897 129.167 1.63552 128.695C1.27207 128.222 1.09035 127.592 1.09035 126.805C1.09035 126.078 1.27207 125.442 1.63552 124.897C1.99897 124.351 2.5078 123.933 3.16201 123.643C3.81621 123.352 4.5734 123.207 5.43356 123.207C6.65717 123.207 7.65666 123.516 8.43202 124.133C9.21949 124.739 9.65563 125.575 9.74043 126.641H7.45071C7.41436 126.181 7.19629 125.787 6.7965 125.46C6.3967 125.133 5.8697 124.969 5.21549 124.969C4.62186 124.969 4.13726 125.121 3.7617 125.424C3.38613 125.727 3.19835 126.163 3.19835 126.732C3.19835 127.12 3.31344 127.441 3.54363 127.695C3.78593 127.937 4.0888 128.131 4.45225 128.277C4.8157 128.422 5.31241 128.58 5.94239 128.749C6.77832 128.979 7.45676 129.21 7.97771 129.44C8.51076 129.67 8.95902 130.027 9.32247 130.512C9.69803 130.984 9.88581 131.62 9.88581 132.42C9.88581 133.062 9.71015 133.668 9.35881 134.237C9.01959 134.807 8.51682 135.267 7.8505 135.618C7.19629 135.958 6.42093 136.127 5.52443 136.127ZM17.5094 125.823C18.2727 125.823 18.9511 125.987 19.5448 126.314C20.1505 126.641 20.623 127.126 20.9622 127.768C21.3135 128.41 21.4892 129.185 21.4892 130.094V136H19.4357V130.403C19.4357 129.506 19.2116 128.822 18.7633 128.349C18.3151 127.865 17.7033 127.622 16.9279 127.622C16.1526 127.622 15.5347 127.865 15.0743 128.349C14.6261 128.822 14.402 129.506 14.402 130.403V136H12.3303V122.552H14.402V127.15C14.7533 126.726 15.1955 126.399 15.7285 126.169C16.2737 125.939 16.8673 125.823 17.5094 125.823ZM23.4412 130.948C23.4412 129.943 23.6471 129.052 24.059 128.277C24.4831 127.501 25.0525 126.902 25.7673 126.478C26.4942 126.041 27.2937 125.823 28.166 125.823C28.9535 125.823 29.638 125.981 30.2195 126.296C30.8131 126.599 31.2856 126.98 31.637 127.441V125.987H33.7268V136H31.637V134.51C31.2856 134.982 30.8071 135.376 30.2013 135.691C29.5956 136.006 28.905 136.164 28.1297 136.164C27.2695 136.164 26.482 135.945 25.7673 135.509C25.0525 135.061 24.4831 134.443 24.059 133.656C23.6471 132.856 23.4412 131.954 23.4412 130.948ZM31.637 130.984C31.637 130.294 31.4916 129.694 31.2008 129.185C30.9222 128.677 30.5527 128.289 30.0923 128.022C29.6319 127.756 29.1352 127.622 28.6022 127.622C28.0691 127.622 27.5724 127.756 27.112 128.022C26.6516 128.277 26.2761 128.658 25.9853 129.167C25.7067 129.664 25.5674 130.258 25.5674 130.948C25.5674 131.639 25.7067 132.244 25.9853 132.765C26.2761 133.286 26.6516 133.686 27.112 133.965C27.5845 134.231 28.0812 134.364 28.6022 134.364C29.1352 134.364 29.6319 134.231 30.0923 133.965C30.5527 133.698 30.9222 133.31 31.2008 132.802C31.4916 132.281 31.637 131.675 31.637 130.984ZM38.5195 127.441C38.8224 126.932 39.2222 126.538 39.7189 126.26C40.2277 125.969 40.8274 125.823 41.5179 125.823V127.968H40.9909C40.1792 127.968 39.5614 128.174 39.1374 128.586C38.7254 128.998 38.5195 129.712 38.5195 130.73V136H36.4478V125.987H38.5195V127.441ZM52.5993 130.748C52.5993 131.124 52.5751 131.463 52.5266 131.766H44.876C44.9366 132.565 45.2334 133.207 45.7665 133.692C46.2995 134.177 46.9537 134.419 47.7291 134.419C48.8437 134.419 49.6311 133.953 50.0915 133.02H52.3267C52.0238 133.94 51.4726 134.698 50.673 135.291C49.8856 135.873 48.9042 136.164 47.7291 136.164C46.772 136.164 45.9118 135.952 45.1486 135.528C44.3975 135.091 43.8038 134.486 43.3677 133.71C42.9437 132.923 42.7317 132.014 42.7317 130.984C42.7317 129.955 42.9376 129.052 43.3495 128.277C43.7736 127.489 44.3611 126.883 45.1123 126.459C45.8755 126.035 46.7478 125.823 47.7291 125.823C48.6741 125.823 49.5161 126.029 50.2551 126.441C50.9941 126.853 51.5695 127.435 51.9814 128.186C52.3934 128.925 52.5993 129.779 52.5993 130.748ZM50.4368 130.094C50.4247 129.331 50.1521 128.719 49.619 128.259C49.086 127.798 48.4257 127.568 47.6382 127.568C46.9234 127.568 46.3116 127.798 45.8028 128.259C45.294 128.707 44.9911 129.319 44.8942 130.094H50.4368ZM55.474 136.127C55.0984 136.127 54.7834 136 54.529 135.746C54.2746 135.491 54.1474 135.176 54.1474 134.801C54.1474 134.425 54.2746 134.11 54.529 133.856C54.7834 133.601 55.0984 133.474 55.474 133.474C55.8374 133.474 56.1463 133.601 56.4008 133.856C56.6552 134.11 56.7824 134.425 56.7824 134.801C56.7824 135.176 56.6552 135.491 56.4008 135.746C56.1463 136 55.8374 136.127 55.474 136.127ZM55.474 128.495C55.0984 128.495 54.7834 128.368 54.529 128.113C54.2746 127.859 54.1474 127.544 54.1474 127.168C54.1474 126.793 54.2746 126.478 54.529 126.223C54.7834 125.969 55.0984 125.842 55.474 125.842C55.8374 125.842 56.1463 125.969 56.4008 126.223C56.6552 126.478 56.7824 126.793 56.7824 127.168C56.7824 127.544 56.6552 127.859 56.4008 128.113C56.1463 128.368 55.8374 128.495 55.474 128.495Z" fill="#232323"/>
<path d="M98.6816 127.7H89.2816V131.4H94.7816C94.6816 132.3 94.0816 133.7 92.7816 134.6C91.9816 135.2 90.7816 135.6 89.2816 135.6C86.6816 135.6 84.3816 133.9 83.5816 131.4C83.3816 130.8 83.2816 130.1 83.2816 129.4C83.2816 128.7 83.3816 128 83.5816 127.4C83.6816 127.2 83.6816 127 83.7816 126.9C84.6816 124.8 86.7816 123.3 89.2816 123.3C91.1816 123.3 92.3816 124.1 93.1816 124.8L95.9816 122C94.2816 120.5 91.9816 119.5 89.2816 119.5C85.3816 119.5 81.9816 121.7 80.3816 125C79.6816 126.4 79.2816 127.9 79.2816 129.5C79.2816 131.1 79.6816 132.6 80.3816 134C81.9816 137.3 85.3816 139.5 89.2816 139.5C91.9816 139.5 94.2816 138.6 95.8816 137.1C97.7816 135.4 98.8816 132.8 98.8816 129.7C98.8816 128.9 98.7816 128.3 98.6816 127.7Z" stroke="#3B3B3B" stroke-width="1.5" stroke-miterlimit="10" stroke-linecap="round" stroke-linejoin="round"/>
<path d="M152.082 126.8V129.7H154.682C154.882 129.7 154.982 129.9 154.982 130.1L154.582 132C154.582 132.1 154.382 132.2 154.282 132.2H152.082V139.5H149.082V132.3H147.382C147.182 132.3 147.082 132.2 147.082 132V130.1C147.082 129.9 147.182 129.8 147.382 129.8H149.082V126.5C149.082 124.8 150.382 123.5 152.082 123.5H154.782C154.982 123.5 155.082 123.6 155.082 123.8V126.2C155.082 126.4 154.982 126.5 154.782 126.5H152.382C152.182 126.5 152.082 126.6 152.082 126.8Z" stroke="#3B3B3B" stroke-width="1.5" stroke-miterlimit="10" stroke-linecap="round"/>
<path d="M153.082 139.5H147.082C142.082 139.5 140.082 137.5 140.082 132.5V126.5C140.082 121.5 142.082 119.5 147.082 119.5H153.082C158.082 119.5 160.082 121.5 160.082 126.5V132.5C160.082 137.5 158.082 139.5 153.082 139.5Z" stroke="#3B3B3B" stroke-width="1.5" stroke-linecap="round" stroke-linejoin="round"/>
<path d="M205.982 138.1C207.482 139 209.282 139.5 211.082 139.5C216.582 139.5 221.082 135 221.082 129.5C221.082 124 216.582 119.5 211.082 119.5C205.582 119.5 201.082 124 201.082 129.5C201.082 131.3 201.582 133 202.382 134.5L201.522 137.806C201.327 138.555 202.021 139.232 202.765 139.019L205.982 138.1Z" stroke="#3B3B3B" stroke-width="1.5" stroke-miterlimit="10" stroke-linecap="round" stroke-linejoin="round"/>
<path d="M215.582 132.348C215.582 132.51 215.546 132.677 215.469 132.839C215.392 133.001 215.293 133.154 215.163 133.298C214.942 133.541 214.698 133.717 214.423 133.829C214.153 133.942 213.86 134 213.545 134C213.085 134 212.594 133.892 212.075 133.671C211.557 133.451 211.039 133.154 210.525 132.781C210.007 132.403 209.516 131.984 209.047 131.52C208.583 131.052 208.164 130.562 207.789 130.049C207.42 129.536 207.122 129.023 206.906 128.515C206.69 128.002 206.582 127.511 206.582 127.043C206.582 126.737 206.636 126.445 206.744 126.175C206.852 125.9 207.023 125.648 207.262 125.423C207.551 125.14 207.866 125 208.2 125C208.326 125 208.452 125.027 208.565 125.081C208.682 125.135 208.785 125.216 208.867 125.333L209.912 126.805C209.993 126.917 210.052 127.02 210.092 127.119C210.133 127.214 210.155 127.309 210.155 127.394C210.155 127.502 210.124 127.61 210.061 127.713C210.002 127.817 209.917 127.925 209.808 128.033L209.466 128.388C209.416 128.438 209.394 128.497 209.394 128.569C209.394 128.605 209.398 128.636 209.407 128.672C209.421 128.708 209.434 128.735 209.443 128.762C209.525 128.91 209.664 129.104 209.863 129.338C210.065 129.572 210.282 129.811 210.516 130.049C210.759 130.287 210.994 130.508 211.233 130.71C211.467 130.908 211.661 131.043 211.814 131.124C211.837 131.133 211.864 131.147 211.895 131.16C211.931 131.174 211.967 131.178 212.008 131.178C212.084 131.178 212.143 131.152 212.193 131.102L212.535 130.765C212.648 130.652 212.756 130.566 212.86 130.512C212.963 130.449 213.067 130.418 213.18 130.418C213.265 130.418 213.355 130.436 213.454 130.476C213.554 130.517 213.657 130.576 213.77 130.652L215.262 131.709C215.379 131.79 215.46 131.885 215.51 131.997C215.555 132.11 215.582 132.222 215.582 132.348Z" stroke="#3B3B3B" stroke-width="1.5" stroke-miterlimit="10"/>
</svg>
