<svg width="148" height="42" viewBox="0 0 148 42" fill="none" xmlns="http://www.w3.org/2000/svg">
<path d="M21.5067 25.3411C22.8111 24.2134 23.8369 23.2895 24.5841 22.5694C25.345 21.8357 25.9768 21.0749 26.4795 20.2869C26.9822 19.4988 27.2335 18.7108 27.2335 17.9228C27.2335 17.1076 27.0365 16.469 26.6425 16.0071C26.2621 15.5451 25.6575 15.3141 24.8287 15.3141C24.0271 15.3141 23.4021 15.5723 22.9537 16.0886C22.5189 16.5913 22.288 17.2706 22.2608 18.1266H20.019C20.0598 16.5777 20.5217 15.3957 21.4048 14.5805C22.3016 13.7517 23.436 13.3373 24.8083 13.3373C26.2892 13.3373 27.4441 13.7449 28.2729 14.5601C29.1153 15.3753 29.5365 16.4622 29.5365 17.8209C29.5365 18.7991 29.2851 19.7434 28.7824 20.6537C28.2933 21.5504 27.7023 22.3588 27.0093 23.0789C26.33 23.7854 25.4605 24.6074 24.4007 25.5449L23.4836 26.3601H29.9441V28.2962H20.0394V26.6047L21.5067 25.3411ZM33.269 25.3411C34.5733 24.2134 35.5991 23.2895 36.3464 22.5694C37.1073 21.8357 37.739 21.0749 38.2417 20.2869C38.7445 19.4988 38.9958 18.7108 38.9958 17.9228C38.9958 17.1076 38.7988 16.469 38.4048 16.0071C38.0244 15.5451 37.4198 15.3141 36.591 15.3141C35.7894 15.3141 35.1644 15.5723 34.716 16.0886C34.2812 16.5913 34.0503 17.2706 34.0231 18.1266H31.7813C31.822 16.5777 32.284 15.3957 33.1671 14.5805C34.0638 13.7517 35.1983 13.3373 36.5706 13.3373C38.0515 13.3373 39.2064 13.7449 40.0352 14.5601C40.8776 15.3753 41.2987 16.4622 41.2987 17.8209C41.2987 18.7991 41.0474 19.7434 40.5447 20.6537C40.0556 21.5504 39.4645 22.3588 38.7716 23.0789C38.0923 23.7854 37.2227 24.6074 36.163 25.5449L35.2459 26.3601H41.7063V28.2962H31.8017V26.6047L33.269 25.3411ZM46.6006 25.7079L44.1346 31.3328H42.6265L44.0734 25.7079H46.6006ZM53.5014 28.6834C52.4417 28.6834 51.4838 28.4457 50.6278 27.9701C49.7719 27.481 49.0993 26.8017 48.6102 25.9321C48.1211 25.049 47.8765 24.03 47.8765 22.8751C47.8765 21.7338 48.1279 20.7216 48.6306 19.8385C49.1333 18.9554 49.8194 18.276 50.689 17.8005C51.5585 17.325 52.53 17.0872 53.6033 17.0872C54.6767 17.0872 55.6481 17.325 56.5177 17.8005C57.3872 18.276 58.0733 18.9554 58.576 19.8385C59.0788 20.7216 59.3301 21.7338 59.3301 22.8751C59.3301 24.0164 59.072 25.0286 58.5557 25.9117C58.0394 26.7949 57.3329 27.481 56.4361 27.9701C55.553 28.4457 54.5748 28.6834 53.5014 28.6834ZM53.5014 26.6658C54.0992 26.6658 54.6563 26.5231 55.1726 26.2378C55.7025 25.9525 56.1304 25.5245 56.4565 24.9539C56.7826 24.3832 56.9456 23.6903 56.9456 22.8751C56.9456 22.0599 56.7894 21.3738 56.4769 20.8167C56.1644 20.2461 55.75 19.8181 55.2337 19.5328C54.7174 19.2475 54.1604 19.1048 53.5626 19.1048C52.9648 19.1048 52.4077 19.2475 51.8914 19.5328C51.3887 19.8181 50.9879 20.2461 50.689 20.8167C50.3901 21.3738 50.2406 22.0599 50.2406 22.8751C50.2406 24.0843 50.5463 25.0218 51.1577 25.6876C51.7827 26.3397 52.5639 26.6658 53.5014 26.6658ZM60.8524 22.8751C60.8524 21.7203 61.0834 20.708 61.5453 19.8385C62.0209 18.9554 62.673 18.276 63.5018 17.8005C64.3306 17.325 65.2817 17.0872 66.355 17.0872C67.7137 17.0872 68.8346 17.4133 69.7177 18.0654C70.6144 18.704 71.219 19.6211 71.5315 20.8167H69.0248C68.821 20.2597 68.4949 19.8249 68.0465 19.5124C67.5982 19.1999 67.0343 19.0437 66.355 19.0437C65.4039 19.0437 64.6431 19.3833 64.0724 20.0627C63.5154 20.7284 63.2369 21.6659 63.2369 22.8751C63.2369 24.0843 63.5154 25.0286 64.0724 25.7079C64.6431 26.3873 65.4039 26.7269 66.355 26.7269C67.7001 26.7269 68.59 26.1359 69.0248 24.9539H71.5315C71.2054 26.0952 70.594 27.0055 69.6973 27.6848C68.8006 28.3505 67.6865 28.6834 66.355 28.6834C65.2817 28.6834 64.3306 28.4457 63.5018 27.9701C62.673 27.481 62.0209 26.8017 61.5453 25.9321C61.0834 25.049 60.8524 24.03 60.8524 22.8751ZM76.5574 19.166V25.3819C76.5574 25.803 76.6525 26.1087 76.8427 26.299C77.0465 26.4756 77.3862 26.5639 77.8617 26.5639H79.2883V28.5H77.4541C76.408 28.5 75.6063 28.2554 75.0493 27.7663C74.4922 27.2772 74.2137 26.4824 74.2137 25.3819V19.166H72.889V17.2706H74.2137V14.4786H76.5574V17.2706H79.2883V19.166H76.5574ZM83.9772 25.7079L81.5112 31.3328H80.0031L81.45 25.7079H83.9772ZM86.9854 25.3411C88.2898 24.2134 89.3156 23.2895 90.0628 22.5694C90.8237 21.8357 91.4555 21.0749 91.9582 20.2869C92.4609 19.4988 92.7122 18.7108 92.7122 17.9228C92.7122 17.1076 92.5152 16.469 92.1212 16.0071C91.7408 15.5451 91.1362 15.3141 90.3074 15.3141C89.5058 15.3141 88.8808 15.5723 88.4324 16.0886C87.9977 16.5913 87.7667 17.2706 87.7395 18.1266H85.4977C85.5385 16.5777 86.0004 15.3957 86.8835 14.5805C87.7803 13.7517 88.9148 13.3373 90.287 13.3373C91.768 13.3373 92.9228 13.7449 93.7516 14.5601C94.594 15.3753 95.0152 16.4622 95.0152 17.8209C95.0152 18.7991 94.7638 19.7434 94.2611 20.6537C93.772 21.5504 93.181 22.3588 92.488 23.0789C91.8087 23.7854 90.9392 24.6074 89.8794 25.5449L88.9623 26.3601H95.4228V28.2962H85.5181V26.6047L86.9854 25.3411ZM97.4638 20.8779C97.4638 18.5274 97.8578 16.6932 98.6458 15.3753C99.4474 14.0438 100.82 13.378 102.763 13.378C104.705 13.378 106.071 14.0438 106.859 15.3753C107.661 16.6932 108.061 18.5274 108.061 20.8779C108.061 23.2555 107.661 25.1169 106.859 26.462C106.071 27.7935 104.705 28.4592 102.763 28.4592C100.82 28.4592 99.4474 27.7935 98.6458 26.462C97.8578 25.1169 97.4638 23.2555 97.4638 20.8779ZM105.779 20.8779C105.779 19.7774 105.704 18.8467 105.555 18.0858C105.419 17.325 105.133 16.7068 104.699 16.2312C104.264 15.7421 103.619 15.4976 102.763 15.4976C101.907 15.4976 101.261 15.7421 100.826 16.2312C100.392 16.7068 100.1 17.325 99.9501 18.0858C99.8143 18.8467 99.7463 19.7774 99.7463 20.8779C99.7463 22.0192 99.8143 22.977 99.9501 23.7515C100.086 24.5259 100.371 25.1509 100.806 25.6264C101.254 26.102 101.907 26.3397 102.763 26.3397C103.619 26.3397 104.264 26.102 104.699 25.6264C105.147 25.1509 105.439 24.5259 105.575 23.7515C105.711 22.977 105.779 22.0192 105.779 20.8779ZM111.804 25.3411C113.108 24.2134 114.134 23.2895 114.881 22.5694C115.642 21.8357 116.274 21.0749 116.776 20.2869C117.279 19.4988 117.53 18.7108 117.53 17.9228C117.53 17.1076 117.333 16.469 116.939 16.0071C116.559 15.5451 115.954 15.3141 115.126 15.3141C114.324 15.3141 113.699 15.5723 113.251 16.0886C112.816 16.5913 112.585 17.2706 112.558 18.1266H110.316C110.357 16.5777 110.819 15.3957 111.702 14.5805C112.598 13.7517 113.733 13.3373 115.105 13.3373C116.586 13.3373 117.741 13.7449 118.57 14.5601C119.412 15.3753 119.833 16.4622 119.833 17.8209C119.833 18.7991 119.582 19.7434 119.079 20.6537C118.59 21.5504 117.999 22.3588 117.306 23.0789C116.627 23.7854 115.757 24.6074 114.698 25.5449L113.781 26.3601H120.241V28.2962H110.336V26.6047L111.804 25.3411ZM121.976 15.7625V13.643H126.215V28.5H123.872V15.7625H121.976Z" fill="#1B5A7D"/>
<rect x="1" y="1" width="146" height="40" rx="19.5" stroke="#D4D4D4"/>
</svg>
