<svg width="256" height="31" viewBox="0 0 256 31" fill="none" xmlns="http://www.w3.org/2000/svg">
<g clip-path="url(#clip0_9896_8053)">
<path d="M17.1065 5.00147L19.2993 9.38714C19.5983 9.99764 20.3957 10.5832 21.0685 10.6954L25.043 11.3557C27.5847 11.7793 28.1828 13.6233 26.3513 15.4423L23.2614 18.5322C22.7381 19.0555 22.4515 20.0647 22.6135 20.7874L23.4981 24.6124C24.1958 27.64 22.5886 28.8112 19.9098 27.2288L16.1845 25.0235C15.5117 24.6248 14.4028 24.6248 13.7176 25.0235L9.99223 27.2288C7.32594 28.8112 5.70624 27.6275 6.40396 24.6124L7.28857 20.7874C7.45054 20.0647 7.16397 19.0555 6.64068 18.5322L3.55078 15.4423C1.73173 13.6233 2.31731 11.7793 4.85901 11.3557L8.83352 10.6954C9.49386 10.5832 10.2913 9.99764 10.5903 9.38714L12.7831 5.00147C13.9792 2.62174 15.9229 2.62174 17.1065 5.00147Z" stroke="#D4A80A" stroke-width="1.86889" stroke-linecap="round" stroke-linejoin="round"/>
<path d="M54.6213 6.27623L56.5499 10.1333C56.8129 10.6703 57.5141 11.1853 58.1059 11.2839L61.6014 11.8646C63.8367 12.2372 64.3627 13.8589 62.7519 15.4588L60.0344 18.1763C59.5742 18.6365 59.3222 19.5241 59.4646 20.1596L60.2426 23.5236C60.8562 26.1863 59.4427 27.2163 57.0868 25.8247L53.8105 23.8852C53.2187 23.5346 52.2435 23.5346 51.6408 23.8852L48.3645 25.8247C46.0195 27.2163 44.595 26.1754 45.2087 23.5236L45.9867 20.1596C46.1291 19.5241 45.8771 18.6365 45.4169 18.1763L42.6994 15.4588C41.0995 13.8589 41.6146 12.2372 43.8499 11.8646L47.3454 11.2839C47.9262 11.1853 48.6275 10.6703 48.8905 10.1333L50.819 6.27623C51.8709 4.18331 53.5803 4.18331 54.6213 6.27623Z" stroke="#D4A80A" stroke-width="1.64365" stroke-linecap="round" stroke-linejoin="round"/>
<path d="M90.594 6.27623L92.5226 10.1333C92.7855 10.6703 93.4868 11.1853 94.0785 11.2839L97.574 11.8646C99.8094 12.2372 100.335 13.8589 98.7246 15.4588L96.0071 18.1763C95.5469 18.6365 95.2948 19.5241 95.4373 20.1596L96.2153 23.5236C96.8289 26.1863 95.4154 27.2163 93.0595 25.8247L89.7831 23.8852C89.1914 23.5346 88.2162 23.5346 87.6135 23.8852L84.3372 25.8247C81.9922 27.2163 80.5677 26.1754 81.1814 23.5236L81.9594 20.1596C82.1018 19.5241 81.8498 18.6365 81.3896 18.1763L78.6721 15.4588C77.0722 13.8589 77.5872 12.2372 79.8226 11.8646L83.3181 11.2839C83.8989 11.1853 84.6002 10.6703 84.8631 10.1333L86.7917 6.27623C87.8436 4.18331 89.553 4.18331 90.594 6.27623Z" stroke="#D4A80A" stroke-width="1.64365" stroke-linecap="round" stroke-linejoin="round"/>
<path d="M126.567 6.27623L128.495 10.1333C128.758 10.6703 129.46 11.1853 130.051 11.2839L133.547 11.8646C135.782 12.2372 136.308 13.8589 134.697 15.4588L131.98 18.1763C131.52 18.6365 131.268 19.5241 131.41 20.1596L132.188 23.5236C132.802 26.1863 131.388 27.2163 129.032 25.8247L125.756 23.8852C125.164 23.5346 124.189 23.5346 123.586 23.8852L120.31 25.8247C117.965 27.2163 116.54 26.1754 117.154 23.5236L117.932 20.1596C118.074 19.5241 117.822 18.6365 117.362 18.1763L114.645 15.4588C113.045 13.8589 113.56 12.2372 115.795 11.8646L119.291 11.2839C119.872 11.1853 120.573 10.6703 120.836 10.1333L122.764 6.27623C123.816 4.18331 125.526 4.18331 126.567 6.27623Z" stroke="#D4A80A" stroke-width="1.64365" stroke-linecap="round" stroke-linejoin="round"/>
<path d="M162.539 6.27623L164.468 10.1333C164.731 10.6703 165.432 11.1853 166.024 11.2839L169.519 11.8646C171.755 12.2372 172.281 13.8589 170.67 15.4588L167.953 18.1763C167.492 18.6365 167.24 19.5241 167.383 20.1596L168.161 23.5236C168.774 26.1863 167.361 27.2163 165.005 25.8247L161.729 23.8852C161.137 23.5346 160.162 23.5346 159.559 23.8852L156.283 25.8247C153.938 27.2163 152.513 26.1754 153.127 23.5236L153.905 20.1596C154.047 19.5241 153.795 18.6365 153.335 18.1763L150.617 15.4588C149.018 13.8589 149.533 12.2372 151.768 11.8646L155.264 11.2839C155.844 11.1853 156.546 10.6703 156.809 10.1333L158.737 6.27623C159.789 4.18331 161.498 4.18331 162.539 6.27623Z" stroke="#D4A80A" stroke-width="1.64365" stroke-linecap="round" stroke-linejoin="round"/>
<path d="M191.989 20.5795H190.486L185.961 13.7327V20.5795H184.457V11.3977H185.961L190.486 18.2313V11.3977H191.989V20.5795ZM197.117 20.6982C196.431 20.6982 195.811 20.5443 195.257 20.2365C194.703 19.9199 194.268 19.4801 193.951 18.9173C193.635 18.3456 193.476 17.686 193.476 16.9384C193.476 16.1997 193.639 15.5445 193.964 14.9728C194.29 14.4011 194.734 13.9614 195.297 13.6536C195.86 13.3458 196.488 13.1918 197.183 13.1918C197.878 13.1918 198.507 13.3458 199.07 13.6536C199.633 13.9614 200.077 14.4011 200.402 14.9728C200.728 15.5445 200.89 16.1997 200.89 16.9384C200.89 17.6772 200.723 18.3324 200.389 18.9041C200.055 19.4757 199.597 19.9199 199.017 20.2365C198.445 20.5443 197.812 20.6982 197.117 20.6982ZM197.117 19.3922C197.504 19.3922 197.865 19.2998 198.199 19.1151C198.542 18.9304 198.819 18.6534 199.03 18.284C199.241 17.9146 199.347 17.4661 199.347 16.9384C199.347 16.4107 199.246 15.9666 199.043 15.606C198.841 15.2366 198.573 14.9596 198.239 14.7749C197.904 14.5902 197.544 14.4979 197.157 14.4979C196.77 14.4979 196.409 14.5902 196.075 14.7749C195.75 14.9596 195.49 15.2366 195.297 15.606C195.103 15.9666 195.007 16.4107 195.007 16.9384C195.007 17.7212 195.204 18.328 195.6 18.7589C196.005 19.1811 196.51 19.3922 197.117 19.3922ZM207.308 14.3659C207.528 13.9966 207.818 13.7107 208.178 13.5085C208.548 13.2974 208.983 13.1918 209.484 13.1918V14.7485H209.102C208.513 14.7485 208.064 14.898 207.756 15.1971C207.457 15.4961 207.308 16.015 207.308 16.7537V20.5795H205.804V13.3106H207.308V14.3659ZM217.529 16.7669C217.529 17.0396 217.511 17.2858 217.476 17.5057H211.922C211.966 18.0861 212.182 18.5523 212.569 18.9041C212.956 19.2559 213.431 19.4317 213.993 19.4317C214.802 19.4317 215.374 19.0931 215.708 18.4159H217.331C217.111 19.0844 216.711 19.634 216.131 20.065C215.559 20.4871 214.846 20.6982 213.993 20.6982C213.299 20.6982 212.674 20.5443 212.12 20.2365C211.575 19.9199 211.144 19.4801 210.827 18.9173C210.519 18.3456 210.366 17.686 210.366 16.9384C210.366 16.1909 210.515 15.5357 210.814 14.9728C211.122 14.4011 211.548 13.9614 212.094 13.6536C212.648 13.3458 213.281 13.1918 213.993 13.1918C214.679 13.1918 215.291 13.3414 215.827 13.6404C216.364 13.9394 216.781 14.3616 217.08 14.9068C217.379 15.4433 217.529 16.0633 217.529 16.7669ZM215.959 16.292C215.95 15.7379 215.752 15.2938 215.365 14.9596C214.978 14.6254 214.499 14.4583 213.927 14.4583C213.409 14.4583 212.964 14.6254 212.595 14.9596C212.226 15.285 212.006 15.7291 211.935 16.292H215.959ZM221.819 19.2339L223.877 13.3106H225.473L222.703 20.5795H220.909L218.151 13.3106H219.761L221.819 19.2339ZM227.375 12.3475C227.102 12.3475 226.874 12.2552 226.689 12.0705C226.504 11.8858 226.412 11.6572 226.412 11.3845C226.412 11.1119 226.504 10.8832 226.689 10.6985C226.874 10.5138 227.102 10.4215 227.375 10.4215C227.639 10.4215 227.863 10.5138 228.048 10.6985C228.232 10.8832 228.325 11.1119 228.325 11.3845C228.325 11.6572 228.232 11.8858 228.048 12.0705C227.863 12.2552 227.639 12.3475 227.375 12.3475ZM228.114 13.3106V20.5795H226.61V13.3106H228.114ZM236.75 16.7669C236.75 17.0396 236.733 17.2858 236.698 17.5057H231.144C231.188 18.0861 231.403 18.5523 231.79 18.9041C232.177 19.2559 232.652 19.4317 233.215 19.4317C234.024 19.4317 234.596 19.0931 234.93 18.4159H236.552C236.333 19.0844 235.932 19.634 235.352 20.065C234.78 20.4871 234.068 20.6982 233.215 20.6982C232.52 20.6982 231.896 20.5443 231.342 20.2365C230.796 19.9199 230.365 19.4801 230.049 18.9173C229.741 18.3456 229.587 17.686 229.587 16.9384C229.587 16.1909 229.736 15.5357 230.035 14.9728C230.343 14.4011 230.77 13.9614 231.315 13.6536C231.869 13.3458 232.502 13.1918 233.215 13.1918C233.901 13.1918 234.512 13.3414 235.049 13.6404C235.585 13.9394 236.003 14.3616 236.302 14.9068C236.601 15.4433 236.75 16.0633 236.75 16.7669ZM235.18 16.292C235.172 15.7379 234.974 15.2938 234.587 14.9596C234.2 14.6254 233.721 14.4583 233.149 14.4583C232.63 14.4583 232.186 14.6254 231.816 14.9596C231.447 15.285 231.227 15.7291 231.157 16.292H235.18ZM247.993 13.3106L245.737 20.5795H244.154L242.689 15.2102L241.225 20.5795H239.642L237.373 13.3106H238.903L240.42 19.1547L241.964 13.3106H243.534L245.011 19.1283L246.515 13.3106H247.993ZM251.755 20.6982C251.183 20.6982 250.669 20.5971 250.211 20.3948C249.763 20.1837 249.407 19.9023 249.143 19.5505C248.879 19.1899 248.738 18.7897 248.721 18.35H250.277C250.304 18.6578 250.449 18.9173 250.713 19.1283C250.985 19.3306 251.324 19.4317 251.728 19.4317C252.151 19.4317 252.476 19.3526 252.705 19.1943C252.942 19.0272 253.061 18.8161 253.061 18.5611C253.061 18.2884 252.929 18.0861 252.665 17.9542C252.41 17.8223 252.001 17.6772 251.438 17.5189C250.893 17.3694 250.449 17.2243 250.106 17.0835C249.763 16.9428 249.464 16.7274 249.209 16.4371C248.963 16.1469 248.839 15.7643 248.839 15.2894C248.839 14.9024 248.954 14.5506 249.182 14.234C249.411 13.9086 249.736 13.6536 250.159 13.4689C250.59 13.2842 251.082 13.1918 251.636 13.1918C252.463 13.1918 253.127 13.4029 253.628 13.8251C254.138 14.2384 254.411 14.8057 254.446 15.5269H252.942C252.916 15.2015 252.784 14.942 252.546 14.7485C252.309 14.555 251.988 14.4583 251.583 14.4583C251.188 14.4583 250.884 14.5331 250.673 14.6826C250.462 14.8321 250.356 15.03 250.356 15.2762C250.356 15.4697 250.427 15.6324 250.568 15.7643C250.708 15.8962 250.88 16.0018 251.082 16.0809C251.284 16.1513 251.583 16.2436 251.979 16.358C252.507 16.4987 252.938 16.6438 253.272 16.7933C253.615 16.934 253.91 17.1451 254.156 17.4265C254.402 17.708 254.53 18.0817 254.538 18.5479C254.538 18.9612 254.424 19.3306 254.195 19.656C253.967 19.9814 253.641 20.2365 253.219 20.4212C252.806 20.6059 252.318 20.6982 251.755 20.6982Z" fill="#4A4A4A"/>
</g>
<defs>
<clipPath id="clip0_9896_8053">
<rect width="255.467" height="29.9023" fill="white" transform="translate(0 0.628296)"/>
</clipPath>
</defs>
</svg>
