<svg width="107" height="28" viewBox="0 0 107 28" fill="none" xmlns="http://www.w3.org/2000/svg">
<path d="M1.08163 14.0306L7.80841 20.7653L21.2857 7.2959" stroke="#30BD57" stroke-width="1.68367" stroke-linecap="round" stroke-linejoin="round"/>
<path d="M39.3121 7.90079V20.5306H37.2404V7.90079H39.3121ZM47.0839 10.3541C47.8714 10.3541 48.5741 10.5176 49.1919 10.8447C49.8219 11.1718 50.3126 11.6564 50.6639 12.2985C51.0152 12.9406 51.1909 13.716 51.1909 14.6246V20.5306H49.1374V14.9335C49.1374 14.037 48.9133 13.3525 48.465 12.88C48.0168 12.3954 47.405 12.1531 46.6296 12.1531C45.8543 12.1531 45.2364 12.3954 44.776 12.88C44.3278 13.3525 44.1036 14.037 44.1036 14.9335V20.5306H42.032V10.5176H44.1036V11.6625C44.4429 11.2506 44.8729 10.9295 45.3939 10.6993C45.9269 10.4692 46.4903 10.3541 47.0839 10.3541ZM62.1885 20.6942C61.401 20.6942 60.6923 20.5549 60.0623 20.2762C59.4445 19.9855 58.9538 19.5978 58.5904 19.1132C58.2269 18.6165 58.0331 18.0652 58.0088 17.4595H60.1532C60.1895 17.8835 60.3894 18.2409 60.7529 18.5317C61.1284 18.8103 61.5949 18.9496 62.1522 18.9496C62.7337 18.9496 63.1819 18.8406 63.4969 18.6225C63.824 18.3923 63.9876 18.1016 63.9876 17.7503C63.9876 17.3747 63.8058 17.096 63.4424 16.9143C63.0911 16.7326 62.5277 16.5327 61.7524 16.3146C61.0012 16.1087 60.3894 15.9088 59.9169 15.7149C59.4445 15.5211 59.0325 15.2243 58.6812 14.8245C58.342 14.4247 58.1724 13.8977 58.1724 13.2435C58.1724 12.7104 58.3299 12.2258 58.6449 11.7897C58.9599 11.3414 59.4081 10.9901 59.9896 10.7357C60.5833 10.4813 61.2617 10.3541 62.0249 10.3541C63.1638 10.3541 64.0784 10.6448 64.769 11.2263C65.4717 11.7957 65.8472 12.5772 65.8957 13.5706H63.824C63.7877 13.1223 63.6059 12.7649 63.2788 12.4984C62.9517 12.2319 62.5095 12.0986 61.9523 12.0986C61.4071 12.0986 60.9891 12.2016 60.6984 12.4076C60.4076 12.6135 60.2622 12.8861 60.2622 13.2253C60.2622 13.4918 60.3591 13.716 60.553 13.8977C60.7468 14.0794 60.9831 14.2248 61.2617 14.3338C61.5403 14.4308 61.9523 14.558 62.4974 14.7155C63.2243 14.9093 63.818 15.1092 64.2783 15.3151C64.7508 15.509 65.1567 15.7997 65.4959 16.1874C65.8351 16.5751 66.0108 17.09 66.0229 17.7321C66.0229 18.3015 65.8654 18.8103 65.5504 19.2586C65.2354 19.7068 64.7872 20.0582 64.2056 20.3126C63.6362 20.567 62.9639 20.6942 62.1885 20.6942ZM70.6783 12.2077V17.7503C70.6783 18.1258 70.7631 18.3984 70.9327 18.568C71.1144 18.7255 71.4173 18.8043 71.8413 18.8043H73.1134V20.5306H71.4779C70.545 20.5306 69.8303 20.3126 69.3335 19.8764C68.8368 19.4403 68.5885 18.7316 68.5885 17.7503V12.2077H67.4073V10.5176H68.5885V8.02799H70.6783V10.5176H73.1134V12.2077H70.6783ZM79.366 20.6942C78.421 20.6942 77.5669 20.4822 76.8037 20.0582C76.0404 19.622 75.4408 19.0163 75.0046 18.2409C74.5685 17.4534 74.3504 16.5448 74.3504 15.515C74.3504 14.4974 74.5745 13.5948 75.0228 12.8073C75.471 12.0199 76.0829 11.4141 76.8582 10.9901C77.6336 10.5661 78.4998 10.3541 79.4569 10.3541C80.414 10.3541 81.2802 10.5661 82.0555 10.9901C82.8309 11.4141 83.4427 12.0199 83.8909 12.8073C84.3392 13.5948 84.5633 14.4974 84.5633 15.515C84.5633 16.5327 84.3331 17.4353 83.8728 18.2227C83.4124 19.0102 82.7824 19.622 81.9828 20.0582C81.1954 20.4822 80.3231 20.6942 79.366 20.6942ZM79.366 18.8951C79.8991 18.8951 80.3958 18.7679 80.8561 18.5135C81.3286 18.2591 81.7103 17.8775 82.001 17.3686C82.2918 16.8598 82.4372 16.2419 82.4372 15.515C82.4372 14.7881 82.2978 14.1763 82.0192 13.6796C81.7405 13.1708 81.371 12.7892 80.9107 12.5348C80.4503 12.2803 79.9536 12.1531 79.4205 12.1531C78.8875 12.1531 78.3908 12.2803 77.9304 12.5348C77.4821 12.7892 77.1247 13.1708 76.8582 13.6796C76.5917 14.1763 76.4584 14.7881 76.4584 15.515C76.4584 16.5933 76.731 17.4292 77.2762 18.0228C77.8335 18.6044 78.5301 18.8951 79.366 18.8951ZM85.9207 15.515C85.9207 14.4853 86.1267 13.5827 86.5386 12.8073C86.9626 12.0199 87.5441 11.4141 88.2831 10.9901C89.0222 10.5661 89.8702 10.3541 90.8273 10.3541C92.0388 10.3541 93.0383 10.6448 93.8257 11.2263C94.6253 11.7957 95.1644 12.6135 95.4431 13.6796H93.2079C93.0262 13.1829 92.7354 12.7952 92.3356 12.5166C91.9358 12.2379 91.433 12.0986 90.8273 12.0986C89.9792 12.0986 89.3008 12.4015 88.792 13.0072C88.2953 13.6009 88.0469 14.4368 88.0469 15.515C88.0469 16.5933 88.2953 17.4353 88.792 18.041C89.3008 18.6468 89.9792 18.9496 90.8273 18.9496C92.0267 18.9496 92.8202 18.4226 93.2079 17.3686H95.4431C95.1523 18.3863 94.6072 19.198 93.8076 19.8037C93.008 20.3974 92.0146 20.6942 90.8273 20.6942C89.8702 20.6942 89.0222 20.4822 88.2831 20.0582C87.5441 19.622 86.9626 19.0163 86.5386 18.2409C86.1267 17.4534 85.9207 16.5448 85.9207 15.515ZM101.469 15.5332L106.085 20.5306H103.286L99.5793 16.2238V20.5306H97.5077V7.08303H99.5793V14.8972L103.214 10.5176H106.085L101.469 15.5332Z" fill="#30BD57"/>
</svg>
