<svg width="129" height="27" viewBox="0 0 129 27" fill="none" xmlns="http://www.w3.org/2000/svg">
<path d="M0.672381 13.6578C0.672381 12.4221 0.957082 11.3136 1.52649 10.3323C2.108 9.35094 2.88942 8.5877 3.87073 8.04253C4.86416 7.48524 5.94845 7.20659 7.1236 7.20659C8.46836 7.20659 9.66169 7.53976 10.7036 8.20608C11.7576 8.86029 12.5208 9.79314 12.9933 11.0046H10.5037C10.1766 10.3383 9.72226 9.8416 9.14074 9.5145C8.55922 9.18739 7.88684 9.02384 7.1236 9.02384C6.28767 9.02384 5.5426 9.21162 4.88839 9.58719C4.23418 9.96275 3.7193 10.5019 3.34373 11.2045C2.98028 11.9072 2.79856 12.725 2.79856 13.6578C2.79856 14.5907 2.98028 15.4084 3.34373 16.1111C3.7193 16.8138 4.23418 17.3589 4.88839 17.7466C5.5426 18.1222 6.28767 18.31 7.1236 18.31C7.88684 18.31 8.55922 18.1464 9.14074 17.8193C9.72226 17.4922 10.1766 16.9955 10.5037 16.3292H12.9933C12.5208 17.5407 11.7576 18.4735 10.7036 19.1277C9.66169 19.7819 8.46836 20.109 7.1236 20.109C5.93633 20.109 4.85204 19.8364 3.87073 19.2913C2.88942 18.734 2.108 17.9647 1.52649 16.9834C0.957082 16.0021 0.672381 14.8935 0.672381 13.6578ZM19.7614 20.1636C18.8164 20.1636 17.9623 19.9515 17.1991 19.5275C16.4358 19.0914 15.8362 18.4856 15.4 17.7103C14.9639 16.9228 14.7458 16.0142 14.7458 14.9844C14.7458 13.9667 14.9699 13.0642 15.4182 12.2767C15.8664 11.4892 16.4782 10.8835 17.2536 10.4595C18.029 10.0354 18.8952 9.82343 19.8523 9.82343C20.8093 9.82343 21.6756 10.0354 22.4509 10.4595C23.2263 10.8835 23.8381 11.4892 24.2863 12.2767C24.7346 13.0642 24.9587 13.9667 24.9587 14.9844C24.9587 16.0021 24.7285 16.9046 24.2682 17.6921C23.8078 18.4796 23.1778 19.0914 22.3782 19.5275C21.5908 19.9515 20.7185 20.1636 19.7614 20.1636ZM19.7614 18.3645C20.2945 18.3645 20.7912 18.2373 21.2515 17.9829C21.724 17.7284 22.1057 17.3468 22.3964 16.838C22.6872 16.3292 22.8325 15.7113 22.8325 14.9844C22.8325 14.2575 22.6932 13.6457 22.4146 13.149C22.1359 12.6402 21.7664 12.2585 21.3061 12.0041C20.8457 11.7497 20.349 11.6225 19.8159 11.6225C19.2829 11.6225 18.7861 11.7497 18.3258 12.0041C17.8775 12.2585 17.5201 12.6402 17.2536 13.149C16.9871 13.6457 16.8538 14.2575 16.8538 14.9844C16.8538 16.0626 17.1264 16.8986 17.6716 17.4922C18.2289 18.0737 18.9255 18.3645 19.7614 18.3645ZM29.0783 6.55239V20H27.0067V6.55239H29.0783ZM36.1415 20.1636C35.1965 20.1636 34.3424 19.9515 33.5791 19.5275C32.8159 19.0914 32.2162 18.4856 31.7801 17.7103C31.3439 16.9228 31.1259 16.0142 31.1259 14.9844C31.1259 13.9667 31.35 13.0642 31.7982 12.2767C32.2465 11.4892 32.8583 10.8835 33.6337 10.4595C34.409 10.0354 35.2752 9.82343 36.2323 9.82343C37.1894 9.82343 38.0556 10.0354 38.831 10.4595C39.6063 10.8835 40.2181 11.4892 40.6664 12.2767C41.1147 13.0642 41.3388 13.9667 41.3388 14.9844C41.3388 16.0021 41.1086 16.9046 40.6482 17.6921C40.1879 18.4796 39.5579 19.0914 38.7583 19.5275C37.9708 19.9515 37.0985 20.1636 36.1415 20.1636ZM36.1415 18.3645C36.6745 18.3645 37.1712 18.2373 37.6316 17.9829C38.1041 17.7284 38.4857 17.3468 38.7765 16.838C39.0672 16.3292 39.2126 15.7113 39.2126 14.9844C39.2126 14.2575 39.0733 13.6457 38.7946 13.149C38.516 12.6402 38.1465 12.2585 37.6861 12.0041C37.2257 11.7497 36.729 11.6225 36.196 11.6225C35.6629 11.6225 35.1662 11.7497 34.7058 12.0041C34.2576 12.2585 33.9002 12.6402 33.6337 13.149C33.3671 13.6457 33.2339 14.2575 33.2339 14.9844C33.2339 16.0626 33.5065 16.8986 34.0516 17.4922C34.6089 18.0737 35.3055 18.3645 36.1415 18.3645ZM45.4584 11.4408C45.7613 10.9319 46.1611 10.5382 46.6578 10.2596C47.1666 9.96881 47.7663 9.82343 48.4568 9.82343V11.9678H47.9298C47.1181 11.9678 46.5003 12.1737 46.0762 12.5856C45.6643 12.9975 45.4584 13.7123 45.4584 14.73V20H43.3867V9.98698H45.4584V11.4408ZM55.9176 20.1272C55.5421 20.1272 55.2271 20 54.9727 19.7456C54.7182 19.4912 54.591 19.1762 54.591 18.8006C54.591 18.4251 54.7182 18.1101 54.9727 17.8557C55.2271 17.6012 55.5421 17.474 55.9176 17.474C56.2811 17.474 56.59 17.6012 56.8444 17.8557C57.0988 18.1101 57.226 18.4251 57.226 18.8006C57.226 19.1762 57.0988 19.4912 56.8444 19.7456C56.59 20 56.2811 20.1272 55.9176 20.1272ZM55.9176 12.4948C55.5421 12.4948 55.2271 12.3676 54.9727 12.1132C54.7182 11.8587 54.591 11.5438 54.591 11.1682C54.591 10.7926 54.7182 10.4776 54.9727 10.2232C55.2271 9.96881 55.5421 9.8416 55.9176 9.8416C56.2811 9.8416 56.59 9.96881 56.8444 10.2232C57.0988 10.4776 57.226 10.7926 57.226 11.1682C57.226 11.5438 57.0988 11.8587 56.8444 12.1132C56.59 12.3676 56.2811 12.4948 55.9176 12.4948Z" fill="#232323"/>
<circle cx="86.5001" cy="13.5" r="13" stroke="#AFAFAF"/>
<circle cx="87.0816" cy="13.5" r="9" fill="#D0EC48"/>
<circle cx="119.673" cy="13.5" r="9" fill="#565656"/>
</svg>
