<svg width="374" height="32" viewBox="0 0 374 32" fill="none" xmlns="http://www.w3.org/2000/svg">
<path d="M5.52443 22.6272C4.67638 22.6272 3.91313 22.4818 3.2347 22.1911C2.55626 21.8882 2.0232 21.4642 1.63552 20.919C1.24784 20.3738 1.054 19.7378 1.054 19.0109H3.27104C3.3195 19.5561 3.53151 20.0043 3.90708 20.3557C4.29476 20.707 4.83387 20.8827 5.52443 20.8827C6.23921 20.8827 6.7965 20.713 7.19629 20.3738C7.59608 20.0225 7.79598 19.5742 7.79598 19.0291C7.79598 18.605 7.66877 18.2598 7.41436 17.9932C7.17206 17.7267 6.86313 17.5207 6.48757 17.3754C6.12412 17.23 5.61529 17.0725 4.96108 16.9029C4.13726 16.6848 3.46488 16.4667 2.94394 16.2487C2.43511 16.0185 1.99897 15.6672 1.63552 15.1947C1.27207 14.7222 1.09035 14.0922 1.09035 13.3047C1.09035 12.5778 1.27207 11.9418 1.63552 11.3966C1.99897 10.8515 2.5078 10.4335 3.16201 10.1427C3.81621 9.85197 4.5734 9.70659 5.43356 9.70659C6.65717 9.70659 7.65666 10.0155 8.43202 10.6334C9.21949 11.2391 9.65563 12.0751 9.74043 13.1412H7.45071C7.41436 12.6808 7.19629 12.2871 6.7965 11.96C6.3967 11.6329 5.8697 11.4693 5.21549 11.4693C4.62186 11.4693 4.13726 11.6208 3.7617 11.9236C3.38613 12.2265 3.19835 12.6626 3.19835 13.232C3.19835 13.6197 3.31344 13.9408 3.54363 14.1952C3.78593 14.4375 4.0888 14.6313 4.45225 14.7767C4.8157 14.9221 5.31241 15.0796 5.94239 15.2492C6.77832 15.4794 7.45676 15.7096 7.97771 15.9397C8.51076 16.1699 8.95902 16.5273 9.32247 17.0119C9.69803 17.4844 9.88581 18.1204 9.88581 18.92C9.88581 19.5621 9.71015 20.1679 9.35881 20.7373C9.01959 21.3067 8.51682 21.767 7.8505 22.1184C7.19629 22.4576 6.42093 22.6272 5.52443 22.6272ZM13.3843 11.1604C13.0087 11.1604 12.6937 11.0332 12.4393 10.7788C12.1849 10.5244 12.0577 10.2094 12.0577 9.8338C12.0577 9.45824 12.1849 9.14325 12.4393 8.88883C12.6937 8.63442 13.0087 8.50721 13.3843 8.50721C13.7477 8.50721 14.0567 8.63442 14.3111 8.88883C14.5655 9.14325 14.6927 9.45824 14.6927 9.8338C14.6927 10.2094 14.5655 10.5244 14.3111 10.7788C14.0567 11.0332 13.7477 11.1604 13.3843 11.1604ZM14.402 12.487V22.5H12.3303V12.487H14.402ZM18.9573 20.81H23.5004V22.5H16.5585V20.81L21.1198 14.177H16.5585V12.487H23.5004V14.177L18.9573 20.81ZM34.8528 17.2482C34.8528 17.6237 34.8285 17.9629 34.7801 18.2658H27.1295C27.1901 19.0654 27.4869 19.7075 28.0199 20.1921C28.553 20.6767 29.2072 20.919 29.9826 20.919C31.0971 20.919 31.8846 20.4526 32.345 19.5197H34.5802C34.2773 20.4405 33.7261 21.1976 32.9265 21.7913C32.139 22.3728 31.1577 22.6636 29.9826 22.6636C29.0255 22.6636 28.1653 22.4515 27.4021 22.0275C26.6509 21.5914 26.0573 20.9856 25.6212 20.2103C25.1971 19.4228 24.9851 18.5142 24.9851 17.4844C24.9851 16.4546 25.1911 15.5521 25.603 14.7767C26.027 13.9892 26.6146 13.3835 27.3657 12.9595C28.129 12.5354 29.0012 12.3234 29.9826 12.3234C30.9275 12.3234 31.7695 12.5294 32.5085 12.9413C33.2475 13.3532 33.823 13.9347 34.2349 14.6858C34.6468 15.4249 34.8528 16.279 34.8528 17.2482ZM32.6903 16.594C32.6781 15.8307 32.4056 15.2189 31.8725 14.7585C31.3394 14.2982 30.6792 14.068 29.8917 14.068C29.1769 14.068 28.5651 14.2982 28.0563 14.7585C27.5474 15.2068 27.2446 15.8186 27.1477 16.594H32.6903ZM42.448 22.6272C42.0724 22.6272 41.7575 22.5 41.503 22.2456C41.2486 21.9912 41.1214 21.6762 41.1214 21.3006C41.1214 20.9251 41.2486 20.6101 41.503 20.3557C41.7575 20.1012 42.0724 19.974 42.448 19.974C42.8115 19.974 43.1204 20.1012 43.3748 20.3557C43.6292 20.6101 43.7564 20.9251 43.7564 21.3006C43.7564 21.6762 43.6292 21.9912 43.3748 22.2456C43.1204 22.5 42.8115 22.6272 42.448 22.6272ZM42.448 14.9948C42.0724 14.9948 41.7575 14.8676 41.503 14.6132C41.2486 14.3587 41.1214 14.0438 41.1214 13.6682C41.1214 13.2926 41.2486 12.9776 41.503 12.7232C41.7575 12.4688 42.0724 12.3416 42.448 12.3416C42.8115 12.3416 43.1204 12.4688 43.3748 12.7232C43.6292 12.9776 43.7564 13.2926 43.7564 13.6682C43.7564 14.0438 43.6292 14.3587 43.3748 14.6132C43.1204 14.8676 42.8115 14.9948 42.448 14.9948Z" fill="#232323"/>
<rect x="64.5815" y="0.5" width="62" height="31" fill="#EEEEEE"/>
<path d="M85.1355 12.5233C85.2082 11.3966 85.6383 10.5183 86.4258 9.88832C87.2254 9.25834 88.243 8.94335 89.4788 8.94335C90.3268 8.94335 91.0598 9.09479 91.6776 9.39766C92.2955 9.70054 92.7619 10.1124 93.0769 10.6334C93.3919 11.1543 93.5494 11.7419 93.5494 12.3961C93.5494 13.1472 93.3495 13.7893 92.9497 14.3224C92.5499 14.8555 92.0714 15.2128 91.5141 15.3946V15.4673C92.2289 15.6853 92.7861 16.0851 93.1859 16.6666C93.5857 17.236 93.7856 17.969 93.7856 18.8655C93.7856 19.5803 93.6221 20.2163 93.295 20.7736C92.9679 21.3309 92.4833 21.7731 91.8412 22.1002C91.1991 22.4152 90.4298 22.5727 89.5333 22.5727C88.2249 22.5727 87.1466 22.2395 86.2986 21.5732C85.4626 20.8948 85.0144 19.9256 84.9538 18.6656H86.9528C87.0013 19.3077 87.2496 19.8347 87.6979 20.2466C88.1461 20.6464 88.7519 20.8463 89.5151 20.8463C90.2541 20.8463 90.8235 20.6464 91.2233 20.2466C91.6231 19.8347 91.823 19.3077 91.823 18.6656C91.823 17.8176 91.5504 17.2179 91.0052 16.8665C90.4722 16.5031 89.6484 16.3214 88.5338 16.3214H88.0613V14.6132H88.552C89.5333 14.601 90.2783 14.4375 90.7872 14.1225C91.3081 13.8075 91.5686 13.3108 91.5686 12.6324C91.5686 12.0508 91.3808 11.5905 91.0052 11.2513C90.6297 10.8999 90.0966 10.7243 89.4061 10.7243C88.7276 10.7243 88.2006 10.8999 87.8251 11.2513C87.4495 11.5905 87.2254 12.0145 87.1527 12.5233H85.1355ZM95.9618 15.7035C95.9618 13.6076 96.3131 11.9721 97.0158 10.7969C97.7306 9.60967 98.9542 9.01604 100.687 9.01604C102.419 9.01604 103.637 9.60967 104.339 10.7969C105.054 11.9721 105.411 13.6076 105.411 15.7035C105.411 17.8236 105.054 19.4834 104.339 20.6828C103.637 21.87 102.419 22.4637 100.687 22.4637C98.9542 22.4637 97.7306 21.87 97.0158 20.6828C96.3131 19.4834 95.9618 17.8236 95.9618 15.7035ZM103.376 15.7035C103.376 14.7222 103.31 13.8923 103.176 13.2139C103.055 12.5354 102.801 11.9842 102.413 11.5602C102.025 11.124 101.45 10.906 100.687 10.906C99.9234 10.906 99.3479 11.124 98.9602 11.5602C98.5726 11.9842 98.3121 12.5354 98.1788 13.2139C98.0577 13.8923 97.9971 14.7222 97.9971 15.7035C97.9971 16.7212 98.0577 17.5753 98.1788 18.2658C98.3 18.9564 98.5544 19.5137 98.9421 19.9377C99.3419 20.3617 99.9234 20.5737 100.687 20.5737C101.45 20.5737 102.025 20.3617 102.413 19.9377C102.813 19.5137 103.073 18.9564 103.194 18.2658C103.316 17.5753 103.376 16.7212 103.376 15.7035Z" fill="#434343"/>
<rect x="64.5815" y="0.5" width="62" height="31" stroke="black"/>
<rect width="63" height="32" transform="translate(146.163)" fill="#EEEEEE"/>
<path d="M175.295 11.0332H169.207V14.6495C169.461 14.3103 169.837 14.0256 170.334 13.7954C170.842 13.5652 171.382 13.4501 171.951 13.4501C172.969 13.4501 173.792 13.6682 174.422 14.1043C175.064 14.5405 175.519 15.0917 175.785 15.758C176.064 16.4243 176.203 17.127 176.203 17.866C176.203 18.7625 176.028 19.5621 175.676 20.2648C175.337 20.9553 174.822 21.5005 174.132 21.9003C173.453 22.3001 172.617 22.5 171.624 22.5C170.303 22.5 169.243 22.1729 168.444 21.5187C167.644 20.8645 167.166 19.9983 167.008 18.92H169.025C169.158 19.4894 169.455 19.9437 169.916 20.283C170.376 20.6101 170.951 20.7736 171.642 20.7736C172.502 20.7736 173.144 20.5131 173.568 19.9922C174.004 19.4713 174.222 18.7807 174.222 17.9205C174.222 17.0483 174.004 16.3819 173.568 15.9216C173.132 15.4491 172.49 15.2128 171.642 15.2128C171.048 15.2128 170.546 15.3643 170.134 15.6672C169.734 15.9579 169.443 16.3577 169.261 16.8665H167.299V9.21594H175.295V11.0332ZM185.483 12.3234C185.35 11.7661 185.108 11.3482 184.757 11.0695C184.405 10.7909 183.915 10.6516 183.285 10.6516C182.328 10.6516 181.613 11.0211 181.14 11.7601C180.668 12.487 180.419 13.6985 180.395 15.3946C180.71 14.8615 181.171 14.4496 181.776 14.1588C182.382 13.8681 183.036 13.7227 183.739 13.7227C184.538 13.7227 185.241 13.8984 185.847 14.2497C186.465 14.5889 186.943 15.0856 187.283 15.7398C187.634 16.3941 187.81 17.1755 187.81 18.0841C187.81 18.9321 187.64 19.6893 187.301 20.3557C186.974 21.022 186.483 21.549 185.829 21.9367C185.175 22.3122 184.387 22.5 183.466 22.5C182.218 22.5 181.237 22.2274 180.522 21.6822C179.82 21.125 179.323 20.3435 179.032 19.338C178.754 18.3325 178.614 17.0786 178.614 15.5763C178.614 11.1422 180.177 8.92518 183.303 8.92518C184.514 8.92518 185.465 9.25228 186.156 9.90649C186.859 10.5607 187.27 11.3663 187.392 12.3234H185.483ZM183.285 15.4673C182.546 15.4673 181.916 15.6914 181.395 16.1396C180.886 16.5758 180.631 17.2118 180.631 18.0477C180.631 18.8837 180.868 19.55 181.34 20.0467C181.825 20.5313 182.497 20.7736 183.357 20.7736C184.121 20.7736 184.72 20.5374 185.156 20.0649C185.605 19.5924 185.829 18.9624 185.829 18.175C185.829 17.3511 185.611 16.6969 185.175 16.2123C184.75 15.7156 184.121 15.4673 183.285 15.4673Z" fill="#434343"/>
<rect width="63" height="32" transform="translate(228.245)" fill="#EEEEEE"/>
<path d="M249.081 19.7378V18.175L255.187 9.41583H257.695V17.9387H259.385V19.7378H257.695V22.5H255.659V19.7378H249.081ZM255.75 11.5238L251.461 17.9387H255.75V11.5238ZM262.246 19.6833C263.409 18.6777 264.324 17.8539 264.99 17.2118C265.669 16.5576 266.232 15.8792 266.68 15.1765C267.128 14.4738 267.353 13.7712 267.353 13.0685C267.353 12.3416 267.177 11.7722 266.826 11.3603C266.486 10.9484 265.947 10.7424 265.208 10.7424C264.493 10.7424 263.936 10.9726 263.536 11.433C263.149 11.8812 262.943 12.487 262.918 13.2502H260.919C260.956 11.8691 261.368 10.8151 262.155 10.0882C262.955 9.3492 263.966 8.9797 265.19 8.9797C266.511 8.9797 267.54 9.34315 268.279 10.07C269.03 10.7969 269.406 11.7661 269.406 12.9776C269.406 13.8499 269.182 14.6919 268.734 15.5036C268.297 16.3032 267.77 17.024 267.153 17.6661C266.547 18.2961 265.772 19.0291 264.827 19.865L264.009 20.5919H269.769V22.3183H260.938V20.81L262.246 19.6833Z" fill="#434343"/>
<rect width="63" height="32" transform="translate(310.327)" fill="#EEEEEE"/>
<path d="M330.662 19.7378V18.175L336.768 9.41583H339.276V17.9387H340.966V19.7378H339.276V22.5H337.241V19.7378H330.662ZM337.332 11.5238L333.043 17.9387H337.332V11.5238ZM344.918 15.5763C343.658 14.9463 343.028 13.9529 343.028 12.596C343.028 11.9418 343.192 11.3421 343.519 10.7969C343.846 10.2518 344.337 9.82169 344.991 9.5067C345.645 9.17959 346.445 9.01604 347.39 9.01604C348.322 9.01604 349.116 9.17959 349.77 9.5067C350.436 9.82169 350.933 10.2518 351.26 10.7969C351.587 11.3421 351.751 11.9418 351.751 12.596C351.751 13.2745 351.575 13.8741 351.224 14.3951C350.885 14.9039 350.43 15.2977 349.861 15.5763C350.552 15.8307 351.097 16.2487 351.496 16.8302C351.896 17.3996 352.096 18.072 352.096 18.8473C352.096 19.6348 351.896 20.3314 351.496 20.9372C351.097 21.5429 350.539 22.0093 349.825 22.3364C349.11 22.6636 348.298 22.8271 347.39 22.8271C346.481 22.8271 345.669 22.6636 344.954 22.3364C344.252 22.0093 343.7 21.5429 343.301 20.9372C342.901 20.3314 342.701 19.6348 342.701 18.8473C342.701 18.0599 342.901 17.3814 343.301 16.812C343.7 16.2426 344.24 15.8307 344.918 15.5763ZM349.77 12.8504C349.77 12.172 349.558 11.651 349.134 11.2876C348.71 10.9241 348.129 10.7424 347.39 10.7424C346.663 10.7424 346.087 10.9241 345.663 11.2876C345.239 11.651 345.027 12.178 345.027 12.8686C345.027 13.4743 345.245 13.9711 345.681 14.3587C346.13 14.7343 346.699 14.9221 347.39 14.9221C348.08 14.9221 348.649 14.7282 349.098 14.3406C349.546 13.9529 349.77 13.4562 349.77 12.8504ZM347.39 16.4849C346.59 16.4849 345.936 16.6848 345.427 17.0846C344.93 17.4723 344.682 18.0356 344.682 18.7746C344.682 19.4652 344.924 20.0285 345.409 20.4647C345.893 20.8887 346.554 21.1007 347.39 21.1007C348.213 21.1007 348.861 20.8827 349.334 20.4465C349.819 20.0104 350.061 19.4531 350.061 18.7746C350.061 18.0477 349.812 17.4844 349.316 17.0846C348.831 16.6848 348.189 16.4849 347.39 16.4849Z" fill="#434343"/>
</svg>
