<svg width="118" height="16" viewBox="0 0 118 16" fill="none" xmlns="http://www.w3.org/2000/svg">
<path d="M9.32799 1.41653L10.6263 4.01307C10.8033 4.36715 11.2754 4.72122 11.6688 4.78023L14.0195 5.17365C15.5243 5.42937 15.8783 6.51126 14.7965 7.59315L12.9671 9.43236C12.6622 9.73726 12.4851 10.3372 12.5835 10.77L13.1048 13.0419C13.5179 14.832 12.5638 15.5303 10.9803 14.5959L8.77721 13.2878C8.37395 13.0518 7.72482 13.0518 7.32157 13.2878L5.10861 14.5861C3.52512 15.5205 2.57108 14.8221 2.98417 13.0321L3.50545 10.7601C3.6038 10.3372 3.42676 9.73726 3.12187 9.42253L1.30232 7.60298C0.22043 6.52109 0.574504 5.42937 2.07932 5.18348L4.42997 4.79007C4.82339 4.72122 5.29548 4.37698 5.47252 4.02291L6.77079 1.42637C7.4691 0.0100743 8.62967 0.0100742 9.32799 1.41653Z" fill="#ACACAC"/>
<path d="M34.8961 1.41653L36.1944 4.01307C36.3714 4.36715 36.8435 4.72122 37.2369 4.78023L39.5876 5.17365C41.0924 5.42937 41.4465 6.51126 40.3646 7.59315L38.5352 9.43236C38.2303 9.73726 38.0533 10.3372 38.1516 10.77L38.6729 13.0419C39.086 14.832 38.1319 15.5303 36.5484 14.5959L34.3453 13.2878C33.9421 13.0518 33.2929 13.0518 32.8897 13.2878L30.6767 14.5861C29.0932 15.5205 28.1392 14.8221 28.5523 13.0321L29.0736 10.7601C29.1719 10.3372 28.9949 9.73726 28.69 9.42253L26.8704 7.60298C25.7885 6.52109 26.1426 5.42937 27.6474 5.18348L29.9981 4.79007C30.3915 4.72122 30.8636 4.37698 31.0406 4.02291L32.3389 1.42637C33.0372 0.0100743 34.1978 0.0100742 34.8961 1.41653Z" fill="#ACACAC"/>
<path d="M60.4642 1.41653L61.7625 4.01307C61.9395 4.36715 62.4116 4.72122 62.805 4.78023L65.1557 5.17365C66.6605 5.42937 67.0146 6.51126 65.9327 7.59315L64.1033 9.43236C63.7984 9.73726 63.6214 10.3372 63.7197 10.77L64.241 13.0419C64.6541 14.832 63.7001 15.5303 62.1166 14.5959L59.9134 13.2878C59.5102 13.0518 58.8611 13.0518 58.4578 13.2878L56.2448 14.5861C54.6613 15.5205 53.7073 14.8221 54.1204 13.0321L54.6417 10.7601C54.74 10.3372 54.563 9.73726 54.2581 9.42253L52.4386 7.60298C51.3567 6.52109 51.7107 5.42937 53.2155 5.18348L55.5662 4.79007C55.9596 4.72122 56.4317 4.37698 56.6088 4.02291L57.907 1.42637C58.6053 0.0100743 59.7659 0.0100742 60.4642 1.41653Z" fill="#ACACAC"/>
<path d="M86.0321 1.41653L87.3304 4.01307C87.5074 4.36715 87.9795 4.72122 88.3729 4.78023L90.7236 5.17365C92.2284 5.42937 92.5824 6.51126 91.5006 7.59315L89.6712 9.43236C89.3663 9.73726 89.1892 10.3372 89.2876 10.77L89.8089 13.0419C90.222 14.832 89.2679 15.5303 87.6844 14.5959L85.4813 13.2878C85.0781 13.0518 84.4289 13.0518 84.0257 13.2878L81.8127 14.5861C80.2292 15.5205 79.2752 14.8221 79.6883 13.0321L80.2095 10.7601C80.3079 10.3372 80.1309 9.73726 79.826 9.42253L78.0064 7.60298C76.9245 6.52109 77.2786 5.42937 78.7834 5.18348L81.1341 4.79007C81.5275 4.72122 81.9996 4.37698 82.1766 4.02291L83.4749 1.42637C84.1732 0.0100743 85.3338 0.0100742 86.0321 1.41653Z" fill="#ACACAC"/>
<path d="M111.6 1.41653L112.898 4.01307C113.076 4.36715 113.548 4.72122 113.941 4.78023L116.292 5.17365C117.796 5.42937 118.151 6.51126 117.069 7.59315L115.239 9.43236C114.934 9.73726 114.757 10.3372 114.856 10.77L115.377 13.0419C115.79 14.832 114.836 15.5303 113.253 14.5959L111.049 13.2878C110.646 13.0518 109.997 13.0518 109.594 13.2878L107.381 14.5861C105.797 15.5205 104.843 14.8221 105.256 13.0321L105.778 10.7601C105.876 10.3372 105.699 9.73726 105.394 9.42253L103.575 7.60298C102.493 6.52109 102.847 5.42937 104.352 5.18348L106.702 4.79007C107.096 4.72122 107.568 4.37698 107.745 4.02291L109.043 1.42637C109.741 0.0100743 110.902 0.0100742 111.6 1.41653Z" fill="#ACACAC"/>
</svg>
