<svg width="297" height="17" viewBox="0 0 297 17" fill="none" xmlns="http://www.w3.org/2000/svg">
<path d="M8.77952 1.42914V12.5306H7.33011V7.49753H1.67583V12.5306H0.226422V1.42914H1.67583V6.30297H7.33011V1.42914H8.77952ZM18.9952 3.80234V12.5306H17.5458V11.2405C17.2697 11.6865 16.8821 12.0369 16.3831 12.2917C15.8946 12.5359 15.3531 12.6581 14.7584 12.6581C14.0789 12.6581 13.4683 12.52 12.9268 12.2439C12.3852 11.9572 11.9552 11.5325 11.6366 10.9697C11.3287 10.407 11.1747 9.72208 11.1747 8.91509V3.80234H12.6082V8.72395C12.6082 9.58404 12.8259 10.2477 13.2613 10.7149C13.6966 11.1715 14.2912 11.3998 15.0451 11.3998C15.8203 11.3998 16.4308 11.1609 16.8768 10.683C17.3228 10.2052 17.5458 9.50971 17.5458 8.59653V3.80234H18.9952ZM22.8918 5.21989C23.1467 4.72083 23.5077 4.33326 23.9749 4.05718C24.4527 3.7811 25.0314 3.64307 25.711 3.64307V5.14026H25.3287C23.7041 5.14026 22.8918 6.02158 22.8918 7.78423V12.5306H21.4424V3.80234H22.8918V5.21989ZM28.8335 5.21989C29.0884 4.72083 29.4494 4.33326 29.9166 4.05718C30.3944 3.7811 30.9731 3.64307 31.6527 3.64307V5.14026H31.2705C29.6459 5.14026 28.8335 6.02158 28.8335 7.78423V12.5306H27.3841V3.80234H28.8335V5.21989ZM40.8437 3.80234L35.5876 16.6399H34.0904L35.8106 12.4351L32.2906 3.80234H33.8993L36.6388 10.8742L39.3465 3.80234H40.8437ZM54.2878 3.80234V12.5306H52.8384V11.2405C52.5623 11.6865 52.1747 12.0369 51.6756 12.2917C51.1872 12.5359 50.6457 12.6581 50.051 12.6581C49.3715 12.6581 48.7609 12.52 48.2194 12.2439C47.6778 11.9572 47.2478 11.5325 46.9292 10.9697C46.6213 10.407 46.4673 9.72208 46.4673 8.91509V3.80234H47.9008V8.72395C47.9008 9.58404 48.1185 10.2477 48.5538 10.7149C48.9892 11.1715 49.5838 11.3998 50.3377 11.3998C51.1129 11.3998 51.7234 11.1609 52.1694 10.683C52.6154 10.2052 52.8384 9.50971 52.8384 8.59653V3.80234H54.2878ZM58.1844 5.41102C58.4711 4.91196 58.8958 4.49784 59.4586 4.16867C60.032 3.82889 60.6957 3.65899 61.4496 3.65899C62.2247 3.65899 62.9255 3.84481 63.552 4.21646C64.1891 4.5881 64.6882 5.11371 65.0492 5.79329C65.4102 6.46224 65.5907 7.24269 65.5907 8.13464C65.5907 9.01596 65.4102 9.80172 65.0492 10.4919C64.6882 11.1821 64.1891 11.7183 63.552 12.1006C62.9255 12.4829 62.2247 12.674 61.4496 12.674C60.7063 12.674 60.0479 12.5094 59.4745 12.1802C58.9118 11.8404 58.4817 11.421 58.1844 10.922V16.6718H56.735V3.80234H58.1844V5.41102ZM64.1095 8.13464C64.1095 7.4763 63.9767 6.9029 63.7113 6.41446C63.4458 5.92601 63.0848 5.55437 62.6282 5.29953C62.1822 5.04469 61.6885 4.91727 61.1469 4.91727C60.616 4.91727 60.1223 5.05 59.6657 5.31546C59.2197 5.5703 58.8587 5.94725 58.5826 6.44631C58.3171 6.93476 58.1844 7.50284 58.1844 8.15056C58.1844 8.8089 58.3171 9.3876 58.5826 9.88667C58.8587 10.3751 59.2197 10.7521 59.6657 11.0175C60.1223 11.2724 60.616 11.3998 61.1469 11.3998C61.6885 11.3998 62.1822 11.2724 62.6282 11.0175C63.0848 10.7521 63.4458 10.3751 63.7113 9.88667C63.9767 9.3876 64.1095 8.80359 64.1095 8.13464ZM69.378 1.42914L69.2028 9.39291H67.9923L67.8171 1.42914H69.378ZM68.6613 12.6262C68.3852 12.6262 68.1516 12.5306 67.9604 12.3395C67.7693 12.1484 67.6737 11.9148 67.6737 11.6387C67.6737 11.3626 67.7693 11.129 67.9604 10.9379C68.1516 10.7468 68.3852 10.6512 68.6613 10.6512C68.9267 10.6512 69.1497 10.7468 69.3302 10.9379C69.5213 11.129 69.6169 11.3626 69.6169 11.6387C69.6169 11.9148 69.5213 12.1484 69.3302 12.3395C69.1497 12.5306 68.9267 12.6262 68.6613 12.6262ZM80.2956 12.674C79.478 12.674 78.7347 12.4882 78.0657 12.1165C77.4074 11.7449 76.8871 11.2193 76.5048 10.5397C76.1332 9.8495 75.9474 9.05312 75.9474 8.15056C75.9474 7.25862 76.1385 6.47286 76.5208 5.79329C76.9136 5.10309 77.4446 4.57748 78.1135 4.21646C78.7825 3.84481 79.5311 3.65899 80.3593 3.65899C81.1875 3.65899 81.9361 3.84481 82.6051 4.21646C83.274 4.57748 83.7996 5.09778 84.1819 5.77736C84.5748 6.45693 84.7712 7.248 84.7712 8.15056C84.7712 9.05312 84.5695 9.8495 84.166 10.5397C83.7731 11.2193 83.2369 11.7449 82.5573 12.1165C81.8777 12.4882 81.1238 12.674 80.2956 12.674ZM80.2956 11.3998C80.8159 11.3998 81.3043 11.2777 81.7609 11.0334C82.2175 10.7892 82.5838 10.4229 82.8599 9.93445C83.1466 9.446 83.29 8.85138 83.29 8.15056C83.29 7.44975 83.1519 6.85512 82.8759 6.36668C82.5998 5.87823 82.2387 5.51721 81.7928 5.2836C81.3468 5.03938 80.8637 4.91727 80.3434 4.91727C79.8125 4.91727 79.324 5.03938 78.878 5.2836C78.4427 5.51721 78.0923 5.87823 77.8268 6.36668C77.5614 6.85512 77.4286 7.44975 77.4286 8.15056C77.4286 8.86199 77.556 9.46193 77.8109 9.95038C78.0763 10.4388 78.4268 10.8052 78.8621 11.0494C79.2975 11.283 79.7753 11.3998 80.2956 11.3998ZM90.9296 3.64307C91.9914 3.64307 92.8515 3.96693 93.5099 4.61465C94.1682 5.25175 94.4974 6.17555 94.4974 7.38604V12.5306H93.0639V7.5931C93.0639 6.72239 92.8462 6.05874 92.4109 5.60215C91.9755 5.13495 91.3809 4.90134 90.627 4.90134C89.8624 4.90134 89.2519 5.14026 88.7953 5.61808C88.3493 6.09591 88.1263 6.79141 88.1263 7.70459V12.5306H86.6769V3.80234H88.1263V5.04469C88.413 4.59872 88.8006 4.25362 89.2891 4.0094C89.7881 3.76518 90.335 3.64307 90.9296 3.64307ZM98.3144 0.744252V12.5306H96.865V0.744252H98.3144ZM108.302 3.80234L103.046 16.6399H101.549L103.269 12.4351L99.7494 3.80234H101.358L104.098 10.8742L106.805 3.80234H108.302ZM113.735 3.91383C113.809 2.93694 114.186 2.17242 114.866 1.62027C115.545 1.06811 116.427 0.792034 117.51 0.792034C118.232 0.792034 118.853 0.924763 119.373 1.19022C119.904 1.44506 120.302 1.79547 120.568 2.24144C120.844 2.68741 120.982 3.19179 120.982 3.75456C120.982 4.4129 120.791 4.98098 120.409 5.45881C120.037 5.93663 119.549 6.24457 118.943 6.3826V6.46224C119.633 6.63214 120.18 6.96661 120.584 7.46568C120.987 7.96474 121.189 8.61777 121.189 9.42477C121.189 10.03 121.051 10.5769 120.775 11.0653C120.499 11.5431 120.085 11.9201 119.533 12.1962C118.98 12.4722 118.317 12.6103 117.542 12.6103C116.416 12.6103 115.492 12.3183 114.77 11.7343C114.048 11.1396 113.645 10.3008 113.56 9.21771H114.961C115.036 9.85481 115.296 10.3751 115.742 10.7786C116.188 11.1821 116.782 11.3839 117.526 11.3839C118.269 11.3839 118.832 11.1927 119.214 10.8105C119.607 10.4176 119.803 9.91321 119.803 9.29735C119.803 8.50097 119.538 7.92758 119.007 7.57717C118.476 7.22676 117.674 7.05156 116.602 7.05156H116.236V5.84107H116.618C117.595 5.83045 118.333 5.67117 118.832 5.36324C119.331 5.04469 119.58 4.55625 119.58 3.89791C119.58 3.33513 119.395 2.88385 119.023 2.54406C118.662 2.20428 118.142 2.03438 117.462 2.03438C116.804 2.03438 116.273 2.20428 115.869 2.54406C115.466 2.88385 115.227 3.34044 115.153 3.91383H113.735ZM122.796 9.9663V8.8673L128.386 1.12651H130.122V8.70803H131.715V9.9663H130.122V12.5306H128.689V9.9663H122.796ZM128.753 2.63963L124.468 8.70803H128.753V2.63963ZM139.098 5.41102C139.384 4.91196 139.809 4.49784 140.372 4.16867C140.945 3.82889 141.609 3.65899 142.363 3.65899C143.138 3.65899 143.839 3.84481 144.465 4.21646C145.102 4.5881 145.601 5.11371 145.962 5.79329C146.323 6.46224 146.504 7.24269 146.504 8.13464C146.504 9.01596 146.323 9.80172 145.962 10.4919C145.601 11.1821 145.102 11.7183 144.465 12.1006C143.839 12.4829 143.138 12.674 142.363 12.674C141.619 12.674 140.961 12.5094 140.388 12.1802C139.825 11.8404 139.395 11.421 139.098 10.922V16.6718H137.648V3.80234H139.098V5.41102ZM145.023 8.13464C145.023 7.4763 144.89 6.9029 144.624 6.41446C144.359 5.92601 143.998 5.55437 143.541 5.29953C143.095 5.04469 142.602 4.91727 142.06 4.91727C141.529 4.91727 141.035 5.05 140.579 5.31546C140.133 5.5703 139.772 5.94725 139.496 6.44631C139.23 6.93476 139.098 7.50284 139.098 8.15056C139.098 8.8089 139.23 9.3876 139.496 9.88667C139.772 10.3751 140.133 10.7521 140.579 11.0175C141.035 11.2724 141.529 11.3998 142.06 11.3998C142.602 11.3998 143.095 11.2724 143.541 11.0175C143.998 10.7521 144.359 10.3751 144.624 9.88667C144.89 9.3876 145.023 8.80359 145.023 8.13464ZM149.861 5.21989C150.116 4.72083 150.477 4.33326 150.944 4.05718C151.422 3.7811 152.001 3.64307 152.68 3.64307V5.14026H152.298C150.673 5.14026 149.861 6.02158 149.861 7.78423V12.5306H148.412V3.80234H149.861V5.21989ZM158.16 12.674C157.343 12.674 156.599 12.4882 155.93 12.1165C155.272 11.7449 154.752 11.2193 154.369 10.5397C153.998 9.8495 153.812 9.05312 153.812 8.15056C153.812 7.25862 154.003 6.47286 154.385 5.79329C154.778 5.10309 155.309 4.57748 155.978 4.21646C156.647 3.84481 157.396 3.65899 158.224 3.65899C159.052 3.65899 159.801 3.84481 160.47 4.21646C161.139 4.57748 161.664 5.09778 162.046 5.77736C162.439 6.45693 162.636 7.248 162.636 8.15056C162.636 9.05312 162.434 9.8495 162.031 10.5397C161.638 11.2193 161.101 11.7449 160.422 12.1165C159.742 12.4882 158.988 12.674 158.16 12.674ZM158.16 11.3998C158.68 11.3998 159.169 11.2777 159.626 11.0334C160.082 10.7892 160.448 10.4229 160.725 9.93445C161.011 9.446 161.155 8.85138 161.155 8.15056C161.155 7.44975 161.017 6.85512 160.74 6.36668C160.464 5.87823 160.103 5.51721 159.657 5.2836C159.211 5.03938 158.728 4.91727 158.208 4.91727C157.677 4.91727 157.189 5.03938 156.743 5.2836C156.307 5.51721 155.957 5.87823 155.691 6.36668C155.426 6.85512 155.293 7.44975 155.293 8.15056C155.293 8.86199 155.421 9.46193 155.675 9.95038C155.941 10.4388 156.291 10.8052 156.727 11.0494C157.162 11.283 157.64 11.3998 158.16 11.3998ZM164 8.13464C164 7.24269 164.18 6.46224 164.542 5.79329C164.903 5.11371 165.396 4.5881 166.023 4.21646C166.66 3.84481 167.371 3.65899 168.157 3.65899C168.837 3.65899 169.468 3.81827 170.052 4.13682C170.636 4.44475 171.082 4.85356 171.39 5.36324V0.744252H172.856V12.5306H171.39V10.8901C171.104 11.4104 170.679 11.8404 170.116 12.1802C169.553 12.5094 168.895 12.674 168.141 12.674C167.366 12.674 166.66 12.4829 166.023 12.1006C165.396 11.7183 164.903 11.1821 164.542 10.4919C164.18 9.80172 164 9.01596 164 8.13464ZM171.39 8.15056C171.39 7.49222 171.258 6.91883 170.992 6.43039C170.727 5.94194 170.366 5.5703 169.909 5.31546C169.463 5.05 168.969 4.91727 168.428 4.91727C167.886 4.91727 167.393 5.04469 166.947 5.29953C166.501 5.55437 166.145 5.92601 165.879 6.41446C165.614 6.9029 165.481 7.4763 165.481 8.13464C165.481 8.80359 165.614 9.3876 165.879 9.88667C166.145 10.3751 166.501 10.7521 166.947 11.0175C167.393 11.2724 167.886 11.3998 168.428 11.3998C168.969 11.3998 169.463 11.2724 169.909 11.0175C170.366 10.7521 170.727 10.3751 170.992 9.88667C171.258 9.3876 171.39 8.8089 171.39 8.15056ZM183.046 3.80234V12.5306H181.596V11.2405C181.32 11.6865 180.933 12.0369 180.434 12.2917C179.945 12.5359 179.404 12.6581 178.809 12.6581C178.13 12.6581 177.519 12.52 176.977 12.2439C176.436 11.9572 176.006 11.5325 175.687 10.9697C175.379 10.407 175.225 9.72208 175.225 8.91509V3.80234H176.659V8.72395C176.659 9.58404 176.877 10.2477 177.312 10.7149C177.747 11.1715 178.342 11.3998 179.096 11.3998C179.871 11.3998 180.482 11.1609 180.927 10.683C181.373 10.2052 181.596 9.50971 181.596 8.59653V3.80234H183.046ZM184.952 8.15056C184.952 7.248 185.132 6.46224 185.493 5.79329C185.854 5.11371 186.353 4.5881 186.99 4.21646C187.638 3.84481 188.376 3.65899 189.204 3.65899C190.277 3.65899 191.158 3.91914 191.848 4.43944C192.549 4.95974 193.011 5.68179 193.234 6.60559H191.673C191.524 6.07467 191.232 5.65525 190.797 5.34731C190.372 5.03938 189.841 4.88541 189.204 4.88541C188.376 4.88541 187.707 5.17211 187.197 5.7455C186.688 6.30828 186.433 7.10996 186.433 8.15056C186.433 9.20178 186.688 10.0141 187.197 10.5875C187.707 11.1609 188.376 11.4476 189.204 11.4476C189.841 11.4476 190.372 11.2989 190.797 11.0016C191.222 10.7043 191.514 10.2795 191.673 9.72739H193.234C193 10.6193 192.533 11.3361 191.832 11.8776C191.131 12.4085 190.255 12.674 189.204 12.674C188.376 12.674 187.638 12.4882 186.99 12.1165C186.353 11.7449 185.854 11.2193 185.493 10.5397C185.132 9.86012 184.952 9.06374 184.952 8.15056ZM196.936 4.99691V10.1415C196.936 10.5662 197.026 10.8689 197.207 11.0494C197.387 11.2193 197.7 11.3042 198.146 11.3042H199.213V12.5306H197.907C197.1 12.5306 196.495 12.3448 196.092 11.9732C195.688 11.6015 195.486 10.991 195.486 10.1415V4.99691H194.356V3.80234H195.486V1.60434H196.936V3.80234H199.213V4.99691H196.936ZM206.665 0.744252V12.5306H205.216V0.744252H206.665ZM217.099 7.83201C217.099 8.10809 217.083 8.40009 217.052 8.70803H210.075C210.128 9.56811 210.42 10.2424 210.951 10.7308C211.493 11.2087 212.146 11.4476 212.91 11.4476C213.537 11.4476 214.057 11.3042 214.471 11.0175C214.896 10.7202 215.193 10.3273 215.363 9.83888H216.924C216.691 10.6777 216.223 11.3626 215.522 11.8935C214.822 12.4138 213.951 12.674 212.91 12.674C212.082 12.674 211.339 12.4882 210.681 12.1165C210.033 11.7449 209.523 11.2193 209.151 10.5397C208.78 9.8495 208.594 9.05312 208.594 8.15056C208.594 7.248 208.775 6.45693 209.136 5.77736C209.497 5.09778 210.001 4.57748 210.649 4.21646C211.307 3.84481 212.061 3.65899 212.91 3.65899C213.739 3.65899 214.471 3.83951 215.108 4.20053C215.745 4.56155 216.234 5.06062 216.574 5.69772C216.924 6.3242 217.099 7.03563 217.099 7.83201ZM215.602 7.52939C215.602 6.97723 215.48 6.50472 215.236 6.11184C214.992 5.70834 214.657 5.40571 214.232 5.20397C213.818 4.9916 213.356 4.88541 212.847 4.88541C212.114 4.88541 211.488 5.11902 210.967 5.58623C210.458 6.05344 210.166 6.70116 210.091 7.52939H215.602ZM222.564 4.99691H220.733V12.5306H219.283V4.99691H218.152V3.80234H219.283V3.18117C219.283 2.20428 219.533 1.49285 220.032 1.04687C220.542 0.590285 221.354 0.36199 222.469 0.36199V1.57248C221.832 1.57248 221.38 1.6999 221.115 1.95475C220.86 2.19897 220.733 2.60777 220.733 3.18117V3.80234H222.564V4.99691ZM226.022 4.99691V10.1415C226.022 10.5662 226.112 10.8689 226.293 11.0494C226.474 11.2193 226.787 11.3042 227.233 11.3042H228.3V12.5306H226.994C226.187 12.5306 225.582 12.3448 225.178 11.9732C224.775 11.6015 224.573 10.991 224.573 10.1415V4.99691H223.442V3.80234H224.573V1.60434H226.022V3.80234H228.3V4.99691H226.022ZM235.051 2.38479C234.775 2.38479 234.541 2.28922 234.35 2.09809C234.159 1.90696 234.063 1.67336 234.063 1.39728C234.063 1.1212 234.159 0.887599 234.35 0.696469C234.541 0.505338 234.775 0.409773 235.051 0.409773C235.316 0.409773 235.539 0.505338 235.72 0.696469C235.911 0.887599 236.007 1.1212 236.007 1.39728C236.007 1.67336 235.911 1.90696 235.72 2.09809C235.539 2.28922 235.316 2.38479 235.051 2.38479ZM235.752 3.80234V12.5306H234.302V3.80234H235.752ZM242.475 3.64307C243.536 3.64307 244.397 3.96693 245.055 4.61465C245.713 5.25175 246.042 6.17555 246.042 7.38604V12.5306H244.609V7.5931C244.609 6.72239 244.391 6.05874 243.956 5.60215C243.521 5.13495 242.926 4.90134 242.172 4.90134C241.408 4.90134 240.797 5.14026 240.34 5.61808C239.894 6.09591 239.671 6.79141 239.671 7.70459V12.5306H238.222V3.80234H239.671V5.04469C239.958 4.59872 240.346 4.25362 240.834 4.0094C241.333 3.76518 241.88 3.64307 242.475 3.64307ZM255.746 12.674C255.077 12.674 254.477 12.5625 253.946 12.3395C253.416 12.1059 252.996 11.7874 252.688 11.3839C252.38 10.9697 252.21 10.4972 252.179 9.9663H253.676C253.718 10.4017 253.92 10.7574 254.281 11.0334C254.653 11.3095 255.136 11.4476 255.73 11.4476C256.283 11.4476 256.718 11.3255 257.036 11.0812C257.355 10.837 257.514 10.5291 257.514 10.1574C257.514 9.77517 257.344 9.49379 257.005 9.31327C256.665 9.12214 256.139 8.93632 255.428 8.75581C254.78 8.58592 254.249 8.41602 253.835 8.24613C253.431 8.06562 253.081 7.80547 252.784 7.46568C252.497 7.11527 252.354 6.65868 252.354 6.09591C252.354 5.64994 252.486 5.24113 252.752 4.86949C253.017 4.49784 253.394 4.20584 253.883 3.99347C254.371 3.77049 254.929 3.65899 255.555 3.65899C256.521 3.65899 257.302 3.90322 257.897 4.39166C258.491 4.88011 258.81 5.54906 258.852 6.39853H257.403C257.371 5.94194 257.185 5.57561 256.845 5.29953C256.516 5.02345 256.07 4.88541 255.507 4.88541C254.987 4.88541 254.573 4.99691 254.265 5.21989C253.957 5.44288 253.803 5.73488 253.803 6.09591C253.803 6.3826 253.893 6.62152 254.074 6.81265C254.265 6.99316 254.499 7.14182 254.775 7.25862C255.061 7.3648 255.454 7.48691 255.953 7.62495C256.58 7.79485 257.09 7.96474 257.482 8.13464C257.875 8.29391 258.21 8.53813 258.486 8.8673C258.773 9.19647 258.921 9.62652 258.932 10.1574C258.932 10.6353 258.799 11.0653 258.534 11.4476C258.268 11.8298 257.891 12.1325 257.403 12.3554C256.925 12.5678 256.373 12.674 255.746 12.674ZM262.746 4.99691V10.1415C262.746 10.5662 262.836 10.8689 263.017 11.0494C263.197 11.2193 263.51 11.3042 263.956 11.3042H265.023V12.5306H263.717C262.91 12.5306 262.305 12.3448 261.902 11.9732C261.498 11.6015 261.296 10.991 261.296 10.1415V4.99691H260.166V3.80234H261.296V1.60434H262.746V3.80234H265.023V4.99691H262.746ZM270.586 12.674C269.769 12.674 269.025 12.4882 268.356 12.1165C267.698 11.7449 267.178 11.2193 266.796 10.5397C266.424 9.8495 266.238 9.05312 266.238 8.15056C266.238 7.25862 266.429 6.47286 266.811 5.79329C267.204 5.10309 267.735 4.57748 268.404 4.21646C269.073 3.84481 269.822 3.65899 270.65 3.65899C271.478 3.65899 272.227 3.84481 272.896 4.21646C273.565 4.57748 274.09 5.09778 274.473 5.77736C274.865 6.45693 275.062 7.248 275.062 8.15056C275.062 9.05312 274.86 9.8495 274.457 10.5397C274.064 11.2193 273.528 11.7449 272.848 12.1165C272.168 12.4882 271.415 12.674 270.586 12.674ZM270.586 11.3998C271.107 11.3998 271.595 11.2777 272.052 11.0334C272.508 10.7892 272.875 10.4229 273.151 9.93445C273.437 9.446 273.581 8.85138 273.581 8.15056C273.581 7.44975 273.443 6.85512 273.167 6.36668C272.89 5.87823 272.529 5.51721 272.083 5.2836C271.637 5.03938 271.154 4.91727 270.634 4.91727C270.103 4.91727 269.615 5.03938 269.169 5.2836C268.733 5.51721 268.383 5.87823 268.117 6.36668C267.852 6.85512 267.719 7.44975 267.719 8.15056C267.719 8.86199 267.847 9.46193 268.102 9.95038C268.367 10.4388 268.717 10.8052 269.153 11.0494C269.588 11.283 270.066 11.3998 270.586 11.3998ZM276.426 8.15056C276.426 7.248 276.607 6.46224 276.968 5.79329C277.329 5.11371 277.828 4.5881 278.465 4.21646C279.113 3.84481 279.851 3.65899 280.679 3.65899C281.751 3.65899 282.633 3.91914 283.323 4.43944C284.024 4.95974 284.485 5.68179 284.708 6.60559H283.148C282.999 6.07467 282.707 5.65525 282.272 5.34731C281.847 5.03938 281.316 4.88541 280.679 4.88541C279.851 4.88541 279.182 5.17211 278.672 5.7455C278.162 6.30828 277.907 7.10996 277.907 8.15056C277.907 9.20178 278.162 10.0141 278.672 10.5875C279.182 11.1609 279.851 11.4476 280.679 11.4476C281.316 11.4476 281.847 11.2989 282.272 11.0016C282.696 10.7043 282.988 10.2795 283.148 9.72739H284.708C284.475 10.6193 284.008 11.3361 283.307 11.8776C282.606 12.4085 281.73 12.674 280.679 12.674C279.851 12.674 279.113 12.4882 278.465 12.1165C277.828 11.7449 277.329 11.2193 276.968 10.5397C276.607 9.86012 276.426 9.06374 276.426 8.15056ZM291.516 12.5306L288.092 8.67617V12.5306H286.642V0.744252H288.092V7.67274L291.452 3.80234H293.475L289.366 8.15056L293.491 12.5306H291.516ZM296.719 1.42914L296.544 9.39291H295.333L295.158 1.42914H296.719ZM296.002 12.6262C295.726 12.6262 295.492 12.5306 295.301 12.3395C295.11 12.1484 295.015 11.9148 295.015 11.6387C295.015 11.3626 295.11 11.129 295.301 10.9379C295.492 10.7468 295.726 10.6512 296.002 10.6512C296.268 10.6512 296.491 10.7468 296.671 10.9379C296.862 11.129 296.958 11.3626 296.958 11.6387C296.958 11.9148 296.862 12.1484 296.671 12.3395C296.491 12.5306 296.268 12.6262 296.002 12.6262Z" fill="#5D5D5D"/>
</svg>
